G04 Layer_Color=16711935*
%FSLAX42Y42*%
%MOMM*%
G71*
G01*
G75*
%ADD11C,0.25*%
%ADD27C,1.40*%
%ADD28C,1.50*%
%ADD29R,1.80X1.80*%
%ADD30C,1.80*%
%ADD31C,1.70*%
%ADD32R,1.70X1.70*%
%ADD33C,1.60*%
%ADD34R,1.70X1.70*%
%ADD35R,2.05X2.05*%
%ADD36C,2.05*%
%ADD38C,1.73*%
D11*
X0Y0D02*
Y5000D01*
Y0D02*
X5000D01*
Y5000D01*
X0D02*
X5000D01*
D27*
X1450Y1881D02*
D03*
Y1119D02*
D03*
X301Y2893D02*
D03*
Y3655D02*
D03*
X3160Y1016D02*
D03*
Y1778D02*
D03*
Y2506D02*
D03*
Y3268D02*
D03*
X4375Y3994D02*
D03*
Y4756D02*
D03*
X2700Y300D02*
D03*
X1938D02*
D03*
X3655Y3268D02*
D03*
Y2506D02*
D03*
X1440Y3655D02*
D03*
Y2893D02*
D03*
X294Y300D02*
D03*
X1056D02*
D03*
X3675Y4756D02*
D03*
Y3994D02*
D03*
D28*
X1617Y2408D02*
D03*
X1307D02*
D03*
D29*
X3225Y4146D02*
D03*
D30*
Y4400D02*
D03*
Y4654D02*
D03*
D31*
X2698Y1331D02*
D03*
Y1585D02*
D03*
Y1839D02*
D03*
Y2093D02*
D03*
Y2347D02*
D03*
Y2601D02*
D03*
Y2855D02*
D03*
Y3109D02*
D03*
Y3363D02*
D03*
Y3617D02*
D03*
Y3871D02*
D03*
Y4125D02*
D03*
Y4379D02*
D03*
Y4633D02*
D03*
X1936Y1331D02*
D03*
Y1585D02*
D03*
Y1839D02*
D03*
Y2093D02*
D03*
Y2347D02*
D03*
Y2601D02*
D03*
Y2855D02*
D03*
Y3109D02*
D03*
Y3363D02*
D03*
Y3617D02*
D03*
Y3871D02*
D03*
Y4125D02*
D03*
Y4379D02*
D03*
X688Y3655D02*
D03*
Y3401D02*
D03*
Y3147D02*
D03*
X4300Y3321D02*
D03*
Y3067D02*
D03*
Y2812D02*
D03*
Y2558D02*
D03*
Y2305D02*
D03*
Y2050D02*
D03*
Y1797D02*
D03*
X4794Y1462D02*
D03*
Y1716D02*
D03*
Y3376D02*
D03*
Y3629D02*
D03*
Y2430D02*
D03*
Y2683D02*
D03*
Y516D02*
D03*
Y770D02*
D03*
X371Y1837D02*
D03*
X625D02*
D03*
X371Y1583D02*
D03*
X625D02*
D03*
X371Y1329D02*
D03*
X625D02*
D03*
X371Y1075D02*
D03*
D32*
X1936Y4633D02*
D03*
D33*
X184Y4687D02*
D03*
X945D02*
D03*
X184Y4275D02*
D03*
X945D02*
D03*
X2706Y825D02*
D03*
X1944D02*
D03*
D34*
X688Y2893D02*
D03*
X4300Y3574D02*
D03*
X4794Y1208D02*
D03*
Y3122D02*
D03*
Y2175D02*
D03*
Y262D02*
D03*
X625Y1075D02*
D03*
D35*
X3396Y325D02*
D03*
D36*
X3904D02*
D03*
D38*
X975Y4025D02*
D03*
X4025D02*
D03*
Y975D02*
D03*
X975Y969D02*
D03*
M02*
