G04 Layer_Physical_Order=1*
G04 Layer_Color=255*
%FSLAX42Y42*%
%MOMM*%
G71*
G01*
G75*
%ADD10C,0.25*%
%ADD11C,0.25*%
%ADD12C,1.20*%
%ADD13C,1.30*%
%ADD14R,1.60X1.60*%
%ADD15C,1.60*%
%ADD16C,1.50*%
%ADD17R,1.50X1.50*%
%ADD18C,1.40*%
%ADD19R,1.50X1.50*%
%ADD20R,1.85X1.85*%
%ADD21C,1.85*%
%ADD22C,2.00*%
D10*
X1426Y2893D02*
X1450Y2869D01*
X150Y2731D02*
X307Y2887D01*
X3483Y129D02*
X4150D01*
X2107D02*
X3483D01*
X3396Y216D02*
X3483Y129D01*
X3396Y216D02*
Y325D01*
X936Y2893D02*
X1426D01*
X150Y2107D02*
X936Y2893D01*
X184Y4687D02*
X420Y4924D01*
X817D01*
X3655Y2401D02*
Y2506D01*
X2808Y3758D02*
X3191Y3375D01*
X3695D01*
X3753Y3318D01*
Y2428D02*
Y3318D01*
X2811Y2918D02*
X3160Y3268D01*
X2811Y2808D02*
Y2918D01*
X2698Y2696D02*
X2811Y2808D01*
X2698Y2601D02*
Y2696D01*
X2332Y1726D02*
X2698Y2093D01*
X2332Y1473D02*
X2698Y1839D01*
X2442Y1329D02*
X2698Y1585D01*
X1870Y1398D02*
X1936Y1331D01*
X1527Y1398D02*
X1870D01*
X2698Y4612D02*
Y4633D01*
X3554Y2300D02*
X3655Y2401D01*
X2904Y2300D02*
X3554D01*
X3201Y1876D02*
X3753Y2428D01*
X2586Y3824D02*
X2651Y3758D01*
X2808D01*
X3701Y3526D02*
X3944Y3283D01*
X3462Y3526D02*
X3701D01*
X3944Y3168D02*
Y3283D01*
Y3168D02*
X4300Y2812D01*
X2745Y2459D02*
X2904Y2300D01*
X1503Y2772D02*
X1817Y3085D01*
X1410Y2772D02*
X1503D01*
X1408Y2774D02*
X1410Y2772D01*
X1010Y2774D02*
X1408D01*
X237Y2000D02*
X1010Y2774D01*
X150Y903D02*
Y2107D01*
X237Y1210D02*
Y2000D01*
X1374Y4149D02*
X1824Y4599D01*
X1052Y3827D02*
X1374Y4149D01*
X1824Y3033D02*
X1889Y2967D01*
X1824Y3033D02*
Y3700D01*
X1374Y4149D02*
X1824Y3700D01*
Y4599D02*
Y4724D01*
X1889Y2967D02*
X1983D01*
X1870Y129D02*
X2107D01*
X2088Y149D02*
X2107Y129D01*
X2088Y149D02*
Y150D01*
X1938Y300D02*
X2088Y150D01*
X946Y129D02*
X1870D01*
X924D02*
X946D01*
X1056Y239D01*
Y300D01*
X1983Y2967D02*
X2075Y2875D01*
X2284D01*
X2680Y2459D02*
X2745D01*
X2586Y2554D02*
X2680Y2459D01*
X2586Y2554D02*
Y2574D01*
X2284Y2875D02*
X2586Y2574D01*
X1484Y1440D02*
X1527Y1398D01*
X1779Y1329D02*
X1889Y1219D01*
X694Y1329D02*
X1779D01*
X1889Y1219D02*
X1983D01*
X673Y1440D02*
X1484D01*
X1581Y1473D02*
X2332D01*
X1357Y1695D02*
X1581Y1473D01*
X578Y1695D02*
X1357D01*
X672Y1441D02*
X673Y1440D01*
X578Y1441D02*
X672D01*
X466Y1329D02*
X578Y1441D01*
X371Y1329D02*
X466D01*
X692Y1327D02*
X694Y1329D01*
X651Y1327D02*
X692D01*
X466Y1583D02*
X578Y1695D01*
X1467Y1726D02*
X2332D01*
X2463Y1279D02*
X2656Y1473D01*
X371Y1583D02*
X466D01*
X237Y1210D02*
X371Y1075D01*
X150Y903D02*
X237Y817D01*
X649Y1329D02*
X651Y1327D01*
X625Y1329D02*
X649D01*
X1356Y1837D02*
X1467Y1726D01*
X625Y1837D02*
X1356D01*
X2093Y1329D02*
X2442D01*
X1983Y1219D02*
X2093Y1329D01*
X2656Y1473D02*
X2745D01*
X2398Y1279D02*
X2463D01*
X1944Y825D02*
X2398Y1279D01*
X1936Y4633D02*
X2586Y3983D01*
Y3824D02*
Y3983D01*
X3120Y1876D02*
X3201D01*
X2811Y1566D02*
X3120Y1876D01*
X2811Y1538D02*
Y1566D01*
X2745Y1473D02*
X2811Y1538D01*
X3160Y1778D02*
X3502Y1437D01*
X4515D01*
X4375Y3649D02*
Y3994D01*
X4300Y3574D02*
X4375Y3649D01*
X4494Y3514D02*
Y4106D01*
X4300Y3321D02*
X4494Y3514D01*
X4515Y3351D02*
X4794Y3629D01*
X4250Y3994D02*
X4375D01*
X4082Y4162D02*
X4250Y3994D01*
X3943Y4162D02*
X4082D01*
X4375Y4225D02*
X4494Y4106D01*
X3058Y3930D02*
X3462Y3526D01*
X3108Y3973D02*
X3490Y3590D01*
X3108Y3973D02*
Y4203D01*
X3058Y3930D02*
Y4020D01*
X2698Y4379D02*
X3058Y4020D01*
X2698Y4612D02*
X3108Y4203D01*
X4515Y1849D02*
Y2405D01*
Y1437D02*
Y1849D01*
X4314Y2050D02*
X4515Y1849D01*
X4300Y2050D02*
X4314D01*
X4640Y770D02*
X4794D01*
X4515Y645D02*
X4640Y770D01*
X4515Y495D02*
Y645D01*
Y1437D01*
Y2405D02*
X4794Y2683D01*
X3776Y3590D02*
X4300Y3067D01*
X3490Y3590D02*
X3776D01*
X4515Y2405D02*
Y3351D01*
X3675Y4815D02*
X3784Y4924D01*
X3675Y4756D02*
Y4815D01*
X1450Y549D02*
Y1119D01*
X4150Y129D02*
X4515Y495D01*
X1450Y549D02*
X1870Y129D01*
X237Y817D02*
X924Y129D01*
X237Y817D02*
X367D01*
X625Y1075D01*
X4515Y1437D02*
X4794Y1716D01*
X3784Y4924D02*
X4208D01*
X4375Y4756D01*
X150Y4027D02*
X291Y4167D01*
Y4397D01*
X817Y4924D01*
X3784D01*
X3311Y4794D02*
X3943Y4162D01*
X1824Y4724D02*
X1895Y4794D01*
X4375Y4225D02*
Y4756D01*
X1895Y4794D02*
X3311D01*
X473Y3827D02*
X1052D01*
X301Y3655D02*
X473Y3827D01*
X150Y2731D02*
Y4027D01*
Y2107D02*
Y2731D01*
D11*
X0Y0D02*
Y5000D01*
Y0D02*
X5000D01*
Y5000D01*
X0D02*
X5000D01*
D12*
X1450Y1881D02*
D03*
Y1119D02*
D03*
X301Y2893D02*
D03*
Y3655D02*
D03*
X3160Y1016D02*
D03*
Y1778D02*
D03*
Y2506D02*
D03*
Y3268D02*
D03*
X4375Y3994D02*
D03*
Y4756D02*
D03*
X2700Y300D02*
D03*
X1938D02*
D03*
X3655Y3268D02*
D03*
Y2506D02*
D03*
X1440Y3655D02*
D03*
Y2893D02*
D03*
X294Y300D02*
D03*
X1056D02*
D03*
X3675Y4756D02*
D03*
Y3994D02*
D03*
D13*
X1617Y2408D02*
D03*
X1307D02*
D03*
D14*
X3225Y4146D02*
D03*
D15*
Y4400D02*
D03*
Y4654D02*
D03*
D16*
X2698Y1331D02*
D03*
Y1585D02*
D03*
Y1839D02*
D03*
Y2093D02*
D03*
Y2347D02*
D03*
Y2601D02*
D03*
Y2855D02*
D03*
Y3109D02*
D03*
Y3363D02*
D03*
Y3617D02*
D03*
Y3871D02*
D03*
Y4125D02*
D03*
Y4379D02*
D03*
Y4633D02*
D03*
X1936Y1331D02*
D03*
Y1585D02*
D03*
Y1839D02*
D03*
Y2093D02*
D03*
Y2347D02*
D03*
Y2601D02*
D03*
Y2855D02*
D03*
Y3109D02*
D03*
Y3363D02*
D03*
Y3617D02*
D03*
Y3871D02*
D03*
Y4125D02*
D03*
Y4379D02*
D03*
X688Y3655D02*
D03*
Y3401D02*
D03*
Y3147D02*
D03*
X4300Y3321D02*
D03*
Y3067D02*
D03*
Y2812D02*
D03*
Y2558D02*
D03*
Y2305D02*
D03*
Y2050D02*
D03*
Y1797D02*
D03*
X4794Y1462D02*
D03*
Y1716D02*
D03*
Y3376D02*
D03*
Y3629D02*
D03*
Y2430D02*
D03*
Y2683D02*
D03*
Y516D02*
D03*
Y770D02*
D03*
X371Y1837D02*
D03*
X625D02*
D03*
X371Y1583D02*
D03*
X625D02*
D03*
X371Y1329D02*
D03*
X625D02*
D03*
X371Y1075D02*
D03*
D17*
X1936Y4633D02*
D03*
D18*
X184Y4687D02*
D03*
X945D02*
D03*
X184Y4275D02*
D03*
X945D02*
D03*
X2706Y825D02*
D03*
X1944D02*
D03*
D19*
X688Y2893D02*
D03*
X4300Y3574D02*
D03*
X4794Y1208D02*
D03*
Y3122D02*
D03*
Y2175D02*
D03*
Y262D02*
D03*
X625Y1075D02*
D03*
D20*
X3396Y325D02*
D03*
D21*
X3904D02*
D03*
D22*
X975Y4025D02*
D03*
X4025D02*
D03*
Y975D02*
D03*
X975Y969D02*
D03*
M02*
