M48
;Layer_Color=9474304
;FILE_FORMAT=2:3
INCH,LZ
;TYPE=PLATED
T1F00S00C0.028
T2F00S00C0.033
T3F00S00C0.035
T4F00S00C0.039
T5F00S00C0.043
%
T01
X00116Y00118
X00416
X00763
X01063
X01244Y004
Y007
Y00987
X01439
Y01287
X01244
X00567Y01139
X00515Y00948
X00637
X00571Y00741
Y00441
X00567Y01439
X00119
Y01139
X01722Y01572
Y01872
X01447
Y01572
T02
X00765Y00325
X01065
X00372Y01683
Y01845
X00072
Y01683
T03
X00146Y00423
Y00523
Y00623
Y00723
X00246
Y00623
Y00523
Y00423
X00762Y00524
Y00624
Y00724
Y00824
Y00924
Y01024
Y01124
Y01224
Y01324
Y01424
Y01524
X01062
Y01424
Y01324
Y01224
Y01124
Y01024
Y00924
Y00824
Y00724
Y00624
Y00524
X00271Y01139
Y01239
Y01339
Y01439
X01693Y01407
Y01307
Y01207
Y01107
Y01007
Y00907
Y00807
Y00707
X01888Y00676
Y00576
Y00476
Y00303
Y00203
Y00103
Y00856
Y00956
Y01056
Y01229
Y01329
Y01429
X01062Y01624
Y01724
Y01824
X00762
Y01724
Y01624
T04
X0127Y01632
Y01732
Y01832
T05
X01337Y00128
X01537
M30
