G04 Layer_Color=65535*
%FSLAX42Y42*%
%MOMM*%
G71*
G01*
G75*
%ADD10C,0.25*%
%ADD11C,0.25*%
%ADD24C,0.20*%
%ADD25C,0.60*%
%ADD26C,0.20*%
D10*
X3358Y3930D02*
G03*
X3358Y3930I-12J0D01*
G01*
X1949Y4763D02*
G03*
X1949Y4763I-12J0D01*
G01*
X3186Y325D02*
G03*
X3186Y325I-12J0D01*
G01*
D11*
X203Y2626D02*
X101D01*
Y2550D01*
X152D01*
X101D01*
Y2474D01*
X355Y2601D02*
X330Y2626D01*
X279D01*
X253Y2601D01*
Y2499D01*
X279Y2474D01*
X330D01*
X355Y2499D01*
X406Y2601D02*
X431Y2626D01*
X482D01*
X507Y2601D01*
Y2576D01*
X482Y2550D01*
X456D01*
X482D01*
X507Y2525D01*
Y2499D01*
X482Y2474D01*
X431D01*
X406Y2499D01*
X3542Y2265D02*
X3440D01*
Y2189D01*
X3491D01*
X3440D01*
Y2113D01*
X3694Y2240D02*
X3669Y2265D01*
X3618D01*
X3592Y2240D01*
Y2138D01*
X3618Y2113D01*
X3669D01*
X3694Y2138D01*
X3846Y2113D02*
X3745D01*
X3846Y2215D01*
Y2240D01*
X3821Y2265D01*
X3770D01*
X3745Y2240D01*
X1368Y4083D02*
X1266D01*
Y4007D01*
X1317D01*
X1266D01*
Y3931D01*
X1520Y4058D02*
X1495Y4083D01*
X1444D01*
X1419Y4058D01*
Y3956D01*
X1444Y3931D01*
X1495D01*
X1520Y3956D01*
X1571Y3931D02*
X1622D01*
X1597D01*
Y4083D01*
X1571Y4058D01*
X1118Y2603D02*
Y2578D01*
X1169Y2527D01*
X1220Y2578D01*
Y2603D01*
X1169Y2527D02*
Y2451D01*
X1270D02*
X1321D01*
X1296D01*
Y2603D01*
X1270Y2578D01*
X3000Y3777D02*
Y3650D01*
X3025Y3625D01*
X3076D01*
X3102Y3650D01*
Y3777D01*
X3152Y3625D02*
X3203D01*
X3178D01*
Y3777D01*
X3152Y3752D01*
X3652Y677D02*
X3626Y702D01*
X3575D01*
X3550Y677D01*
Y652D01*
X3575Y626D01*
X3626D01*
X3652Y601D01*
Y575D01*
X3626Y550D01*
X3575D01*
X3550Y575D01*
X3702Y550D02*
X3753D01*
X3728D01*
Y702D01*
X3702Y677D01*
X2206Y975D02*
Y1127D01*
X2282D01*
X2308Y1102D01*
Y1051D01*
X2282Y1026D01*
X2206D01*
X2257D02*
X2308Y975D01*
X2358Y1102D02*
X2384Y1127D01*
X2435D01*
X2460Y1102D01*
Y1077D01*
X2435Y1051D01*
X2409D01*
X2435D01*
X2460Y1026D01*
Y1000D01*
X2435Y975D01*
X2384D01*
X2358Y1000D01*
X430Y4408D02*
Y4560D01*
X506D01*
X532Y4534D01*
Y4484D01*
X506Y4458D01*
X430D01*
X481D02*
X532Y4408D01*
X684D02*
X582D01*
X684Y4509D01*
Y4534D01*
X659Y4560D01*
X608D01*
X582Y4534D01*
X439Y4812D02*
Y4964D01*
X516D01*
X541Y4939D01*
Y4888D01*
X516Y4863D01*
X439D01*
X490D02*
X541Y4812D01*
X592D02*
X643D01*
X617D01*
Y4964D01*
X592Y4939D01*
X896Y2129D02*
X1048D01*
X896Y2027D01*
X1048D01*
X896Y1977D02*
X1048D01*
Y1900D01*
X1023Y1875D01*
X972D01*
X947Y1900D01*
Y1977D01*
Y1926D02*
X896Y1875D01*
X1048Y1723D02*
Y1824D01*
X972D01*
Y1774D01*
Y1824D01*
X896D01*
Y1570D02*
Y1672D01*
X998Y1570D01*
X1023D01*
X1048Y1596D01*
Y1647D01*
X1023Y1672D01*
X896Y1443D02*
X1048D01*
X972Y1520D01*
Y1418D01*
X1048Y1367D02*
X896D01*
Y1266D01*
X1023Y1215D02*
X1048Y1190D01*
Y1139D01*
X1023Y1113D01*
X921D01*
X896Y1139D01*
Y1190D01*
X921Y1215D01*
X1023D01*
X896Y1063D02*
Y1012D01*
Y1037D01*
X1048D01*
X1023Y1063D01*
X972Y936D02*
Y834D01*
X1023Y885D02*
X921D01*
X863Y3772D02*
X1015D01*
X863Y3670D01*
X1015D01*
Y3518D02*
Y3620D01*
X863D01*
Y3518D01*
X939Y3620D02*
Y3569D01*
X1015Y3391D02*
Y3442D01*
X990Y3467D01*
X888D01*
X863Y3442D01*
Y3391D01*
X888Y3366D01*
X990D01*
X1015Y3391D01*
Y3213D02*
X990Y3264D01*
X939Y3315D01*
X888D01*
X863Y3290D01*
Y3239D01*
X888Y3213D01*
X914D01*
X939Y3239D01*
Y3315D01*
X863Y3163D02*
X1015D01*
X965Y3112D01*
X1015Y3061D01*
X863D01*
X1015Y3010D02*
X914D01*
X863Y2959D01*
X914Y2909D01*
X1015D01*
X863Y2756D02*
Y2858D01*
X965Y2756D01*
X990D01*
X1015Y2782D01*
Y2833D01*
X990Y2858D01*
X4125Y2195D02*
X3973D01*
X4023Y2246D01*
X3973Y2297D01*
X4125D01*
Y2348D02*
X3973D01*
Y2424D01*
X3998Y2449D01*
X4049D01*
X4074Y2424D01*
Y2348D01*
X3973Y2500D02*
X4100D01*
X4125Y2526D01*
Y2576D01*
X4100Y2602D01*
X3973D01*
Y2754D02*
X3998Y2703D01*
X4049Y2653D01*
X4100D01*
X4125Y2678D01*
Y2729D01*
X4100Y2754D01*
X4074D01*
X4049Y2729D01*
Y2653D01*
X3998Y2805D02*
X3973Y2830D01*
Y2881D01*
X3998Y2906D01*
X4100D01*
X4125Y2881D01*
Y2830D01*
X4100Y2805D01*
X3998D01*
X3973Y3059D02*
Y2957D01*
X4049D01*
X4023Y3008D01*
Y3033D01*
X4049Y3059D01*
X4100D01*
X4125Y3033D01*
Y2983D01*
X4100Y2957D01*
X3998Y3110D02*
X3973Y3135D01*
Y3186D01*
X3998Y3211D01*
X4100D01*
X4125Y3186D01*
Y3135D01*
X4100Y3110D01*
X3998D01*
X4622Y3010D02*
X4470D01*
X4521Y3061D01*
X4470Y3112D01*
X4622D01*
Y3239D02*
X4470D01*
X4546Y3162D01*
Y3264D01*
X4622Y2064D02*
X4470D01*
X4521Y2115D01*
X4470Y2166D01*
X4622D01*
X4496Y2216D02*
X4470Y2242D01*
Y2293D01*
X4496Y2318D01*
X4521D01*
X4546Y2293D01*
Y2267D01*
Y2293D01*
X4572Y2318D01*
X4597D01*
X4622Y2293D01*
Y2242D01*
X4597Y2216D01*
X4601Y1118D02*
X4449D01*
X4499Y1169D01*
X4449Y1220D01*
X4601D01*
Y1372D02*
Y1270D01*
X4499Y1372D01*
X4474D01*
X4449Y1347D01*
Y1296D01*
X4474Y1270D01*
X4622Y172D02*
X4470D01*
X4521Y223D01*
X4470Y274D01*
X4622D01*
Y324D02*
Y375D01*
Y350D01*
X4470D01*
X4496Y324D01*
X3072Y734D02*
X3046Y759D01*
X2995D01*
X2970Y734D01*
Y632D01*
X2995Y607D01*
X3046D01*
X3072Y632D01*
X3224Y759D02*
X3173Y734D01*
X3122Y683D01*
Y632D01*
X3148Y607D01*
X3199D01*
X3224Y632D01*
Y658D01*
X3199Y683D01*
X3122D01*
X4015Y4728D02*
X3989Y4753D01*
X3938D01*
X3913Y4728D01*
Y4626D01*
X3938Y4601D01*
X3989D01*
X4015Y4626D01*
X4142Y4601D02*
Y4753D01*
X4065Y4677D01*
X4167D01*
X1370Y836D02*
X1345Y862D01*
X1294D01*
X1269Y836D01*
Y735D01*
X1294Y709D01*
X1345D01*
X1370Y735D01*
X1421Y836D02*
X1446Y862D01*
X1497D01*
X1522Y836D01*
Y811D01*
X1497Y786D01*
X1472D01*
X1497D01*
X1522Y760D01*
Y735D01*
X1497Y709D01*
X1446D01*
X1421Y735D01*
X4752Y4727D02*
X4726Y4752D01*
X4675D01*
X4650Y4727D01*
Y4625D01*
X4675Y4600D01*
X4726D01*
X4752Y4625D01*
X4904Y4600D02*
X4802D01*
X4904Y4702D01*
Y4727D01*
X4879Y4752D01*
X4828D01*
X4802Y4727D01*
X2227Y652D02*
X2201Y677D01*
X2150D01*
X2125Y652D01*
Y550D01*
X2150Y525D01*
X2201D01*
X2227Y550D01*
X2277Y525D02*
X2328D01*
X2303D01*
Y677D01*
X2277Y652D01*
X1725Y4800D02*
Y4902D01*
X1776Y4952D01*
X1827Y4902D01*
Y4800D01*
Y4876D01*
X1725D01*
X1877Y4952D02*
X1979D01*
X1928D01*
Y4800D01*
X2030D02*
Y4952D01*
X2080Y4902D01*
X2131Y4952D01*
Y4800D01*
X2284Y4952D02*
X2182D01*
Y4800D01*
X2284D01*
X2182Y4876D02*
X2233D01*
X2436Y4927D02*
X2411Y4952D01*
X2360D01*
X2334Y4927D01*
Y4825D01*
X2360Y4800D01*
X2411D01*
X2436Y4825D01*
Y4876D01*
X2385D01*
X2487Y4800D02*
Y4902D01*
X2538Y4952D01*
X2588Y4902D01*
Y4800D01*
Y4876D01*
X2487D01*
X2639Y4927D02*
X2664Y4952D01*
X2715D01*
X2741Y4927D01*
Y4902D01*
X2715Y4876D01*
X2690D01*
X2715D01*
X2741Y4851D01*
Y4825D01*
X2715Y4800D01*
X2664D01*
X2639Y4825D01*
X2893Y4800D02*
X2791D01*
X2893Y4902D01*
Y4927D01*
X2868Y4952D01*
X2817D01*
X2791Y4927D01*
X2944D02*
X2969Y4952D01*
X3020D01*
X3045Y4927D01*
Y4902D01*
X3020Y4876D01*
X3045Y4851D01*
Y4825D01*
X3020Y4800D01*
X2969D01*
X2944Y4825D01*
Y4851D01*
X2969Y4876D01*
X2944Y4902D01*
Y4927D01*
X2969Y4876D02*
X3020D01*
X3096Y4800D02*
Y4952D01*
X3172D01*
X3198Y4927D01*
Y4876D01*
X3172Y4851D01*
X3096D01*
X221Y728D02*
X119D01*
Y652D01*
X170D01*
X119D01*
Y576D01*
X373Y703D02*
X348Y728D01*
X297D01*
X271Y703D01*
Y601D01*
X297Y576D01*
X348D01*
X373Y601D01*
X500Y576D02*
Y728D01*
X424Y652D01*
X525D01*
X3090Y2234D02*
X3065Y2259D01*
X3014D01*
X2989Y2234D01*
Y2132D01*
X3014Y2107D01*
X3065D01*
X3090Y2132D01*
X3242Y2259D02*
X3141D01*
Y2183D01*
X3192Y2209D01*
X3217D01*
X3242Y2183D01*
Y2132D01*
X3217Y2107D01*
X3166D01*
X3141Y2132D01*
X775Y2651D02*
X877D01*
X4601Y2871D02*
X4703D01*
X4601Y1904D02*
X4703D01*
X4601Y958D02*
X4703D01*
X4601Y3817D02*
X4703D01*
X1325Y301D02*
X1427D01*
X0Y0D02*
Y5000D01*
Y0D02*
X5000D01*
Y5000D01*
X0D02*
X5000D01*
D24*
X1578Y2510D02*
G03*
X1343Y2509I-117J-102D01*
G01*
X1344Y2307D02*
G03*
X1579Y2306I118J101D01*
G01*
X2254Y4752D02*
G03*
X2381Y4752I63J0D01*
G01*
X1260Y2072D02*
X1641D01*
Y928D02*
Y2072D01*
X1260Y928D02*
X1641D01*
X1260D02*
Y2072D01*
X111Y2702D02*
X491D01*
X111D02*
Y3846D01*
X491D01*
Y2702D02*
Y3846D01*
X2970Y826D02*
X3351D01*
X2970D02*
Y1969D01*
X3351D01*
Y826D02*
Y1969D01*
X2970Y2316D02*
Y3458D01*
Y2316D02*
X3351D01*
Y3458D01*
X2970D02*
X3351D01*
X2990Y3865D02*
Y4935D01*
X2940Y3865D02*
Y4935D01*
X3410Y3865D02*
Y4935D01*
X2940Y3865D02*
X3410D01*
X2940Y4935D02*
X3410D01*
X4185Y3803D02*
X4565D01*
X4185D02*
Y4947D01*
X4565D01*
Y3803D02*
Y4947D01*
X2052Y1212D02*
X2582D01*
X2381Y4752D02*
X2582D01*
X2052D02*
X2254D01*
X2582Y1212D02*
Y4752D01*
X2052Y1212D02*
Y4752D01*
X311Y4611D02*
Y4687D01*
Y4611D02*
X819D01*
Y4763D01*
X311D02*
X819D01*
X311Y4687D02*
Y4763D01*
X819Y4687D02*
X841D01*
X288D02*
X311D01*
Y4199D02*
Y4275D01*
Y4199D02*
X819D01*
Y4351D01*
X311D02*
X819D01*
X311Y4275D02*
Y4351D01*
X819Y4275D02*
X841D01*
X288D02*
X311D01*
X561Y2766D02*
X815D01*
X561D02*
Y3782D01*
X815Y2766D02*
Y3782D01*
X561D02*
X815D01*
X3222Y452D02*
X4078D01*
Y198D02*
Y452D01*
X3222Y198D02*
X4078D01*
X3222D02*
Y452D01*
X2891Y110D02*
Y491D01*
X1748Y110D02*
X2891D01*
X1748D02*
Y491D01*
X2891D01*
X2579Y825D02*
Y901D01*
X2071D02*
X2579D01*
X2071Y749D02*
Y901D01*
Y749D02*
X2579D01*
Y825D01*
X2048D02*
X2071D01*
X2579D02*
X2602D01*
X4173Y1669D02*
X4427D01*
X4173D02*
Y3701D01*
X4427D01*
Y1669D02*
Y3701D01*
X4922Y1081D02*
Y1843D01*
X4667D02*
X4922D01*
X4667Y1081D02*
Y1843D01*
Y1081D02*
X4922D01*
X3465Y3458D02*
X3846D01*
Y2316D02*
Y3458D01*
X3465Y2316D02*
X3846D01*
X3465D02*
Y3458D01*
X4922Y2994D02*
Y3756D01*
X4667D02*
X4922D01*
X4667Y2994D02*
Y3756D01*
Y2994D02*
X4922D01*
Y2049D02*
Y2810D01*
X4667D02*
X4922D01*
X4667Y2049D02*
Y2810D01*
Y2049D02*
X4922D01*
Y135D02*
Y897D01*
X4667D02*
X4922D01*
X4667Y135D02*
Y897D01*
Y135D02*
X4922D01*
X752Y948D02*
Y1964D01*
X244Y948D02*
Y1964D01*
Y948D02*
X752D01*
X244Y1964D02*
X752D01*
X1250Y3846D02*
X1631D01*
Y2702D02*
Y3846D01*
X1250Y2702D02*
X1631D01*
X1250D02*
Y3846D01*
X103Y491D02*
X1247D01*
X103Y110D02*
Y491D01*
Y110D02*
X1247D01*
Y491D01*
X3865Y3803D02*
Y4947D01*
X3485D02*
X3865D01*
X3485Y3803D02*
Y4947D01*
Y3803D02*
X3865D01*
D25*
X2182Y4652D02*
G03*
X2182Y4652I-30J0D01*
G01*
D26*
X422Y906D02*
Y821D01*
X337Y906D01*
X316D01*
X295Y884D01*
Y842D01*
X316Y821D01*
X676Y872D02*
Y914D01*
Y893D01*
X549D01*
X570Y872D01*
X549Y1989D02*
Y2074D01*
X570D01*
X655Y1989D01*
X676D01*
X316D02*
X295Y2011D01*
Y2053D01*
X316Y2074D01*
X337D01*
X358Y2053D01*
X379Y2074D01*
X401D01*
X422Y2053D01*
Y2011D01*
X401Y1989D01*
X379D01*
X358Y2011D01*
X337Y1989D01*
X316D01*
X358Y2011D02*
Y2053D01*
M02*
