M48
;Layer_Color=9474304
;FILE_FORMAT=4:4
METRIC,LZ
;TYPE=PLATED
T1F00S00C0.7000
T2F00S00C0.8500
T3F00S00C0.9000
T4F00S00C1.0000
T5F00S00C1.1000
;TYPE=NON_PLATED
T6F00S00C2.0000
%
T01
X0123552Y0082182
X0131172
X0139992
X0147612
X0152217Y0089347
Y0096967
Y0104242
X0157162
Y0111862
X0152217
X0135017Y0108112
X0133682Y0103262
X0136782
X0135112Y0097992
Y0090372
X0135017Y0115732
X0123622
Y0108112
X0164362Y0119122
Y0126742
X0157362
Y0119122
T02
X0140052Y0087432
X0147672
X0130067Y0121932
Y0126052
X0122447
Y0121932
T03
X0124322Y0089932
Y0092472
Y0095012
Y0097552
X0126862
Y0095012
Y0092472
Y0089932
X01399729Y0092492
Y0095032
Y0097572
Y0100112
Y0102652
Y0105192
Y0107732
Y0110272
Y0112812
Y0115352
Y0117892
X01475928
Y0115352
Y0112812
Y0110272
Y0107732
Y0105192
Y0102652
Y0100112
Y0097572
Y0095032
Y0092492
X0127492Y0108112
Y0110652
Y0113192
Y0115732
X0163612Y0114927
Y0112387
Y0109847
Y0107307
Y0104767
Y0102227
Y0099687
Y0097147
X0168557Y0096342
Y0093802
Y0091262
Y0086882
Y0084342
Y0081802
Y0100937
Y0103477
Y0106017
Y0110397
Y0112937
Y0115477
X01475928Y0120432
Y0122972
Y0125512
X01399729
Y0122972
Y0120432
T04
X0152862Y0120642
Y0123182
Y0125722
T05
X0154572Y0082432
X0159652
T06
X0130362Y0088872
X0160862Y0088932
Y0119432
X0130362
M30
