G04 Layer_Color=0*
%FSLAX42Y42*%
%MOMM*%
G71*
G01*
G75*
%ADD11C,0.25*%
%ADD40C,0.05*%
%ADD41C,0.13*%
%ADD42C,0.18*%
D11*
X0Y0D02*
Y5000D01*
Y0D02*
X5000D01*
Y5000D01*
X0D02*
X5000D01*
D40*
X2455Y-5353D02*
X5325D01*
X2455Y-5348D02*
X5335D01*
X2455Y-5343D02*
X5345D01*
X2455Y-5338D02*
X5356D01*
X2455Y-5332D02*
X5361D01*
X2455Y-5327D02*
X5371D01*
X2455Y-5322D02*
X5376D01*
X2455Y-5317D02*
X5381D01*
X2455Y-5312D02*
X5386D01*
X2455Y-5307D02*
X5391D01*
X2455Y-5302D02*
X5396D01*
X2455Y-5297D02*
X5401D01*
X2455Y-5292D02*
X5406D01*
X2455Y-5287D02*
X5411D01*
X2455Y-5282D02*
X5417D01*
X2455Y-5277D02*
X5422D01*
X2455Y-5272D02*
X5422D01*
X2455Y-5266D02*
X5427D01*
X2455Y-5261D02*
X5432D01*
X2455Y-5256D02*
X5432D01*
X2455Y-5251D02*
X5437D01*
X2455Y-5246D02*
X5437D01*
X2455Y-5241D02*
X5442D01*
X2455Y-5236D02*
X5442D01*
X2455Y-5231D02*
X5442D01*
X2455Y-5226D02*
X5447D01*
X2455Y-5221D02*
X5447D01*
X2455Y-5216D02*
X5447D01*
X2455Y-5211D02*
X5452D01*
X2455Y-5205D02*
X5452D01*
X2455Y-5200D02*
X5452D01*
X2455Y-5195D02*
X5452D01*
X2455Y-5190D02*
X5452D01*
X2455Y-5185D02*
X5452D01*
X2455Y-5180D02*
X5452D01*
X2455Y-5175D02*
X5452D01*
X2455Y-5170D02*
X5452D01*
X2455Y-5165D02*
X5452D01*
X2455Y-5160D02*
X5452D01*
X2455Y-5155D02*
X5452D01*
X2455Y-5150D02*
X5452D01*
X2455Y-5145D02*
X5452D01*
X4502Y-5139D02*
X5452D01*
X3192D02*
X4462D01*
X2455D02*
X3146D01*
X4507Y-5134D02*
X5452D01*
X3197D02*
X4456D01*
X2455D02*
X3141D01*
X4512Y-5129D02*
X5452D01*
X3202D02*
X4456D01*
X2455D02*
X3141D01*
X4517Y-5124D02*
X5452D01*
X4467D02*
X4492D01*
X3202D02*
X4456D01*
X3151D02*
X3176D01*
X2455D02*
X3141D01*
X4517Y-5119D02*
X5452D01*
X3207D02*
X4497D01*
X2455D02*
X3181D01*
X4517Y-5114D02*
X5452D01*
X3207D02*
X4497D01*
X2455D02*
X3186D01*
X5097Y-5109D02*
X5452D01*
X5041D02*
X5076D01*
X4959D02*
X5000D01*
X4903D02*
X4939D01*
X4842D02*
X4863D01*
X4817D02*
X4822D01*
X4751D02*
X4787D01*
X4614D02*
X4690D01*
X4568D02*
X4599D01*
X4522D02*
X4548D01*
X4487D02*
X4502D01*
X4426D02*
X4467D01*
X4370D02*
X4406D01*
X4299D02*
X4329D01*
X4187D02*
X4258D01*
X4050D02*
X4136D01*
X3994D02*
X4009D01*
X3913D02*
X3959D01*
X3867D02*
X3893D01*
X3816D02*
X3847D01*
X3755D02*
X3796D01*
X3659D02*
X3720D01*
X3623D02*
X3644D01*
X3557D02*
X3593D01*
X3476D02*
X3522D01*
X3390D02*
X3435D01*
X3344D02*
X3369D01*
X3207D02*
X3283D01*
X3176D02*
X3186D01*
X3110D02*
X3151D01*
X3065D02*
X3090D01*
X3014D02*
X3044D01*
X2978D02*
X2993D01*
X2927D02*
X2953D01*
X2882D02*
X2907D01*
X2856D02*
X2866D01*
X2790D02*
X2826D01*
X2744D02*
X2770D01*
X2699D02*
X2724D01*
X2455D02*
X2678D01*
X5097Y-5104D02*
X5452D01*
X5046D02*
X5076D01*
X4959D02*
X4995D01*
X4909D02*
X4939D01*
X4842D02*
X4863D01*
X4751D02*
X4776D01*
X4614D02*
X4690D01*
X4568D02*
X4599D01*
X4522D02*
X4548D01*
X4497D02*
X4502D01*
X4426D02*
X4456D01*
X4375D02*
X4406D01*
X4304D02*
X4329D01*
X4197D02*
X4253D01*
X4055D02*
X4136D01*
X3994D02*
X4009D01*
X3913D02*
X3948D01*
X3867D02*
X3893D01*
X3816D02*
X3847D01*
X3766D02*
X3796D01*
X3659D02*
X3710D01*
X3623D02*
X3644D01*
X3557D02*
X3588D01*
X3476D02*
X3512D01*
X3390D02*
X3425D01*
X3344D02*
X3369D01*
X3207D02*
X3283D01*
X3110D02*
X3146D01*
X3065D02*
X3090D01*
X3014D02*
X3044D01*
X2973D02*
X2993D01*
X2927D02*
X2948D01*
X2882D02*
X2907D01*
X2790D02*
X2821D01*
X2744D02*
X2770D01*
X2699D02*
X2719D01*
X2455D02*
X2678D01*
X5097Y-5099D02*
X5452D01*
X5046D02*
X5076D01*
X4959D02*
X4990D01*
X4914D02*
X4939D01*
X4842D02*
X4863D01*
X4751D02*
X4776D01*
X4614D02*
X4690D01*
X4568D02*
X4599D01*
X4522D02*
X4548D01*
X4426D02*
X4451D01*
X4380D02*
X4406D01*
X4304D02*
X4329D01*
X4208D02*
X4248D01*
X4060D02*
X4136D01*
X3994D02*
X4009D01*
X3913D02*
X3943D01*
X3867D02*
X3893D01*
X3816D02*
X3847D01*
X3766D02*
X3796D01*
X3659D02*
X3705D01*
X3623D02*
X3644D01*
X3557D02*
X3583D01*
X3476D02*
X3506D01*
X3390D02*
X3420D01*
X3344D02*
X3369D01*
X3207D02*
X3283D01*
X3110D02*
X3141D01*
X3065D02*
X3090D01*
X3014D02*
X3044D01*
X2968D02*
X2993D01*
X2927D02*
X2943D01*
X2882D02*
X2907D01*
X2790D02*
X2816D01*
X2750D02*
X2770D01*
X2699D02*
X2719D01*
X2455D02*
X2678D01*
X5097Y-5094D02*
X5452D01*
X5046D02*
X5076D01*
X5010D02*
X5041D01*
X4959D02*
X4985D01*
X4914D02*
X4939D01*
X4842D02*
X4893D01*
X4797D02*
X4817D01*
X4715D02*
X4776D01*
X4614D02*
X4690D01*
X4568D02*
X4599D01*
X4522D02*
X4548D01*
X4477D02*
X4492D01*
X4426D02*
X4451D01*
X4380D02*
X4406D01*
X4304D02*
X4360D01*
X4268D02*
X4299D01*
X4213D02*
X4243D01*
X4157D02*
X4172D01*
X4060D02*
X4136D01*
X3969D02*
X4040D01*
X3913D02*
X3938D01*
X3867D02*
X3893D01*
X3816D02*
X3847D01*
X3771D02*
X3796D01*
X3725D02*
X3745D01*
X3659D02*
X3699D01*
X3608D02*
X3644D01*
X3532D02*
X3583D01*
X3476D02*
X3506D01*
X3440D02*
X3471D01*
X3390D02*
X3415D01*
X3303D02*
X3369D01*
X3207D02*
X3283D01*
X3166D02*
X3176D01*
X3110D02*
X3136D01*
X3065D02*
X3090D01*
X3014D02*
X3044D01*
X2963D02*
X2993D01*
X2927D02*
X2943D01*
X2882D02*
X2907D01*
X2836D02*
X2856D01*
X2790D02*
X2816D01*
X2750D02*
X2770D01*
X2699D02*
X2719D01*
X2455D02*
X2678D01*
X5097Y-5089D02*
X5452D01*
X5005D02*
X5076D01*
X4959D02*
X4985D01*
X4919D02*
X4939D01*
X4842D02*
X4893D01*
X4792D02*
X4822D01*
X4715D02*
X4776D01*
X4614D02*
X4690D01*
X4568D02*
X4599D01*
X4522D02*
X4548D01*
X4472D02*
X4497D01*
X4426D02*
X4446D01*
X4380D02*
X4406D01*
X4263D02*
X4360D01*
X4213D02*
X4243D01*
X4157D02*
X4182D01*
X4060D02*
X4136D01*
X3964D02*
X4040D01*
X3913D02*
X3938D01*
X3867D02*
X3893D01*
X3816D02*
X3847D01*
X3776D02*
X3796D01*
X3720D02*
X3750D01*
X3659D02*
X3699D01*
X3603D02*
X3644D01*
X3527D02*
X3583D01*
X3435D02*
X3501D01*
X3390D02*
X3415D01*
X3303D02*
X3369D01*
X3207D02*
X3283D01*
X3161D02*
X3181D01*
X3110D02*
X3136D01*
X3065D02*
X3090D01*
X3014D02*
X3044D01*
X2963D02*
X2993D01*
X2927D02*
X2938D01*
X2882D02*
X2907D01*
X2836D02*
X2861D01*
X2790D02*
X2816D01*
X2750D02*
X2770D01*
X2699D02*
X2714D01*
X2455D02*
X2678D01*
X5097Y-5084D02*
X5452D01*
X5000D02*
X5076D01*
X4959D02*
X4980D01*
X4914D02*
X4939D01*
X4842D02*
X4893D01*
X4797D02*
X4822D01*
X4715D02*
X4776D01*
X4614D02*
X4690D01*
X4568D02*
X4599D01*
X4522D02*
X4548D01*
X4472D02*
X4497D01*
X4426D02*
X4446D01*
X4380D02*
X4406D01*
X4258D02*
X4360D01*
X4218D02*
X4238D01*
X4157D02*
X4192D01*
X4060D02*
X4136D01*
X3959D02*
X4040D01*
X3913D02*
X3938D01*
X3867D02*
X3893D01*
X3816D02*
X3847D01*
X3776D02*
X3796D01*
X3720D02*
X3755D01*
X3659D02*
X3699D01*
X3603D02*
X3644D01*
X3522D02*
X3583D01*
X3430D02*
X3501D01*
X3390D02*
X3415D01*
X3303D02*
X3369D01*
X3207D02*
X3283D01*
X3156D02*
X3186D01*
X3110D02*
X3136D01*
X3065D02*
X3090D01*
X3014D02*
X3044D01*
X2958D02*
X2993D01*
X2927D02*
X2932D01*
X2882D02*
X2907D01*
X2836D02*
X2861D01*
X2790D02*
X2816D01*
X2755D02*
X2770D01*
X2699D02*
X2714D01*
X2455D02*
X2678D01*
X5097Y-5078D02*
X5452D01*
X5051D02*
X5076D01*
X4959D02*
X4980D01*
X4914D02*
X4939D01*
X4842D02*
X4883D01*
X4802D02*
X4822D01*
X4715D02*
X4776D01*
X4614D02*
X4690D01*
X4568D02*
X4599D01*
X4522D02*
X4548D01*
X4467D02*
X4502D01*
X4426D02*
X4446D01*
X4380D02*
X4406D01*
X4309D02*
X4345D01*
X4218D02*
X4238D01*
X4157D02*
X4192D01*
X4060D02*
X4136D01*
X3959D02*
X4025D01*
X3913D02*
X3938D01*
X3867D02*
X3893D01*
X3816D02*
X3847D01*
X3776D02*
X3796D01*
X3720D02*
X3755D01*
X3659D02*
X3699D01*
X3603D02*
X3644D01*
X3522D02*
X3583D01*
X3481D02*
X3501D01*
X3390D02*
X3415D01*
X3303D02*
X3369D01*
X3207D02*
X3283D01*
X3156D02*
X3186D01*
X3110D02*
X3136D01*
X3065D02*
X3090D01*
X3014D02*
X3044D01*
X2953D02*
X2993D01*
X2882D02*
X2907D01*
X2841D02*
X2861D01*
X2790D02*
X2816D01*
X2755D02*
X2770D01*
X2729D02*
X2734D01*
X2699D02*
X2714D01*
X2455D02*
X2678D01*
X5097Y-5073D02*
X5452D01*
X5051D02*
X5076D01*
X4959D02*
X4980D01*
X4914D02*
X4939D01*
X4842D02*
X4868D01*
X4715D02*
X4782D01*
X4614D02*
X4690D01*
X4568D02*
X4599D01*
X4522D02*
X4548D01*
X4467D02*
X4502D01*
X4426D02*
X4446D01*
X4375D02*
X4406D01*
X4309D02*
X4335D01*
X4218D02*
X4238D01*
X4157D02*
X4197D01*
X4060D02*
X4136D01*
X3959D02*
X4014D01*
X3913D02*
X3938D01*
X3867D02*
X3893D01*
X3816D02*
X3847D01*
X3776D02*
X3796D01*
X3720D02*
X3755D01*
X3664D02*
X3699D01*
X3603D02*
X3644D01*
X3522D02*
X3583D01*
X3481D02*
X3501D01*
X3390D02*
X3415D01*
X3303D02*
X3369D01*
X3207D02*
X3283D01*
X3156D02*
X3186D01*
X3110D02*
X3136D01*
X3065D02*
X3090D01*
X3014D02*
X3044D01*
X2948D02*
X2993D01*
X2882D02*
X2907D01*
X2790D02*
X2821D01*
X2755D02*
X2770D01*
X2729D02*
X2739D01*
X2699D02*
X2709D01*
X2455D02*
X2678D01*
X5097Y-5068D02*
X5452D01*
X5051D02*
X5076D01*
X4959D02*
X4980D01*
X4903D02*
X4939D01*
X4842D02*
X4863D01*
X4715D02*
X4787D01*
X4614D02*
X4690D01*
X4568D02*
X4599D01*
X4522D02*
X4548D01*
X4467D02*
X4502D01*
X4426D02*
X4446D01*
X4370D02*
X4406D01*
X4309D02*
X4329D01*
X4223D02*
X4238D01*
X4157D02*
X4197D01*
X4050D02*
X4136D01*
X3959D02*
X4009D01*
X3913D02*
X3938D01*
X3867D02*
X3893D01*
X3816D02*
X3847D01*
X3776D02*
X3796D01*
X3720D02*
X3755D01*
X3664D02*
X3699D01*
X3603D02*
X3644D01*
X3522D02*
X3583D01*
X3481D02*
X3501D01*
X3390D02*
X3415D01*
X3303D02*
X3369D01*
X3207D02*
X3283D01*
X3156D02*
X3186D01*
X3110D02*
X3136D01*
X3065D02*
X3090D01*
X3014D02*
X3044D01*
X2948D02*
X2993D01*
X2882D02*
X2907D01*
X2790D02*
X2826D01*
X2760D02*
X2770D01*
X2729D02*
X2739D01*
X2699D02*
X2709D01*
X2455D02*
X2678D01*
X5097Y-5063D02*
X5452D01*
X5051D02*
X5076D01*
X5000D02*
X5030D01*
X4959D02*
X4980D01*
X4888D02*
X4939D01*
X4842D02*
X4863D01*
X4751D02*
X4822D01*
X4614D02*
X4690D01*
X4568D02*
X4594D01*
X4522D02*
X4548D01*
X4467D02*
X4497D01*
X4426D02*
X4446D01*
X4355D02*
X4406D01*
X4309D02*
X4329D01*
X4258D02*
X4289D01*
X4223D02*
X4238D01*
X4157D02*
X4197D01*
X4035D02*
X4136D01*
X3959D02*
X4009D01*
X3913D02*
X3938D01*
X3867D02*
X3893D01*
X3821D02*
X3847D01*
X3776D02*
X3796D01*
X3720D02*
X3755D01*
X3664D02*
X3699D01*
X3603D02*
X3644D01*
X3522D02*
X3583D01*
X3481D02*
X3501D01*
X3430D02*
X3466D01*
X3390D02*
X3415D01*
X3339D02*
X3369D01*
X3207D02*
X3283D01*
X3156D02*
X3186D01*
X3110D02*
X3136D01*
X3065D02*
X3090D01*
X3014D02*
X3044D01*
X2953D02*
X2993D01*
X2882D02*
X2907D01*
X2790D02*
X2861D01*
X2760D02*
X2770D01*
X2729D02*
X2739D01*
X2699D02*
X2709D01*
X2455D02*
X2678D01*
X5102Y-5058D02*
X5452D01*
X5051D02*
X5076D01*
X5000D02*
X5030D01*
X4959D02*
X4985D01*
X4883D02*
X4939D01*
X4842D02*
X4863D01*
X4751D02*
X4822D01*
X4614D02*
X4690D01*
X4573D02*
X4594D01*
X4522D02*
X4548D01*
X4472D02*
X4497D01*
X4426D02*
X4446D01*
X4350D02*
X4406D01*
X4309D02*
X4329D01*
X4258D02*
X4289D01*
X4223D02*
X4243D01*
X4157D02*
X4197D01*
X4030D02*
X4136D01*
X3964D02*
X4009D01*
X3913D02*
X3938D01*
X3867D02*
X3893D01*
X3821D02*
X3847D01*
X3776D02*
X3796D01*
X3720D02*
X3750D01*
X3664D02*
X3699D01*
X3603D02*
X3644D01*
X3527D02*
X3583D01*
X3481D02*
X3501D01*
X3435D02*
X3461D01*
X3390D02*
X3415D01*
X3339D02*
X3369D01*
X3207D02*
X3283D01*
X3156D02*
X3186D01*
X3110D02*
X3136D01*
X3065D02*
X3090D01*
X3014D02*
X3044D01*
X2958D02*
X2993D01*
X2927D02*
X2932D01*
X2882D02*
X2907D01*
X2790D02*
X2861D01*
X2760D02*
X2770D01*
X2724D02*
X2744D01*
X2699D02*
X2709D01*
X2455D02*
X2678D01*
X5117Y-5053D02*
X5452D01*
X5046D02*
X5076D01*
X5005D02*
X5030D01*
X4959D02*
X4985D01*
X4883D02*
X4939D01*
X4837D02*
X4863D01*
X4792D02*
X4817D01*
X4751D02*
X4782D01*
X4614D02*
X4690D01*
X4573D02*
X4594D01*
X4522D02*
X4548D01*
X4477D02*
X4492D01*
X4426D02*
X4451D01*
X4350D02*
X4406D01*
X4304D02*
X4329D01*
X4263D02*
X4289D01*
X4223D02*
X4243D01*
X4157D02*
X4197D01*
X4030D02*
X4136D01*
X3964D02*
X4009D01*
X3913D02*
X3938D01*
X3867D02*
X3893D01*
X3826D02*
X3842D01*
X3771D02*
X3796D01*
X3725D02*
X3745D01*
X3684D02*
X3699D01*
X3603D02*
X3644D01*
X3532D02*
X3583D01*
X3481D02*
X3506D01*
X3435D02*
X3461D01*
X3390D02*
X3415D01*
X3339D02*
X3369D01*
X3207D02*
X3283D01*
X3161D02*
X3181D01*
X3110D02*
X3136D01*
X3070D02*
X3090D01*
X3014D02*
X3044D01*
X2958D02*
X2993D01*
X2927D02*
X2938D01*
X2882D02*
X2907D01*
X2831D02*
X2861D01*
X2790D02*
X2821D01*
X2765D02*
X2770D01*
X2724D02*
X2744D01*
X2699D02*
X2704D01*
X2455D02*
X2678D01*
X5117Y-5048D02*
X5452D01*
X5046D02*
X5076D01*
X4959D02*
X4990D01*
X4914D02*
X4939D01*
X4837D02*
X4863D01*
X4715D02*
X4782D01*
X4614D02*
X4690D01*
X4522D02*
X4548D01*
X4426D02*
X4451D01*
X4375D02*
X4406D01*
X4304D02*
X4329D01*
X4218D02*
X4248D01*
X4157D02*
X4197D01*
X4060D02*
X4136D01*
X3989D02*
X4009D01*
X3913D02*
X3943D01*
X3862D02*
X3893D01*
X3766D02*
X3796D01*
X3684D02*
X3705D01*
X3618D02*
X3644D01*
X3557D02*
X3567D01*
X3476D02*
X3506D01*
X3390D02*
X3420D01*
X3303D02*
X3369D01*
X3207D02*
X3283D01*
X3110D02*
X3141D01*
X3014D02*
X3044D01*
X2963D02*
X2993D01*
X2927D02*
X2943D01*
X2877D02*
X2907D01*
X2790D02*
X2821D01*
X2765D02*
X2770D01*
X2724D02*
X2744D01*
X2699D02*
X2704D01*
X2455D02*
X2678D01*
X5117Y-5043D02*
X5452D01*
X5091D02*
X5097D01*
X5041D02*
X5076D01*
X4959D02*
X4995D01*
X4914D02*
X4939D01*
X4832D02*
X4868D01*
X4715D02*
X4782D01*
X4609D02*
X4690D01*
X4522D02*
X4548D01*
X4426D02*
X4456D01*
X4380D02*
X4406D01*
X4299D02*
X4335D01*
X4218D02*
X4248D01*
X4157D02*
X4192D01*
X4060D02*
X4136D01*
X3989D02*
X4014D01*
X3913D02*
X3948D01*
X3862D02*
X3893D01*
X3766D02*
X3796D01*
X3684D02*
X3710D01*
X3659D02*
X3664D01*
X3618D02*
X3644D01*
X3557D02*
X3567D01*
X3471D02*
X3512D01*
X3390D02*
X3425D01*
X3303D02*
X3369D01*
X3207D02*
X3283D01*
X3105D02*
X3146D01*
X3014D02*
X3044D01*
X2968D02*
X2993D01*
X2927D02*
X2943D01*
X2877D02*
X2907D01*
X2790D02*
X2821D01*
X2765D02*
X2770D01*
X2719D02*
X2744D01*
X2455D02*
X2678D01*
X5244Y-5038D02*
X5452D01*
X5224D02*
X5239D01*
X5203D02*
X5213D01*
X5173D02*
X5193D01*
X5117D02*
X5168D01*
X5091D02*
X5102D01*
X5036D02*
X5076D01*
X4959D02*
X5000D01*
X4914D02*
X4939D01*
X4827D02*
X4873D01*
X4715D02*
X4787D01*
X4604D02*
X4690D01*
X4568D02*
X4573D01*
X4522D02*
X4548D01*
X4492D02*
X4502D01*
X4426D02*
X4462D01*
X4380D02*
X4406D01*
X4294D02*
X4340D01*
X4218D02*
X4258D01*
X4157D02*
X4192D01*
X4060D02*
X4136D01*
X3994D02*
X4020D01*
X3913D02*
X3953D01*
X3857D02*
X3893D01*
X3816D02*
X3826D01*
X3755D02*
X3796D01*
X3684D02*
X3720D01*
X3659D02*
X3669D01*
X3618D02*
X3644D01*
X3557D02*
X3567D01*
X3466D02*
X3522D01*
X3390D02*
X3430D01*
X3303D02*
X3369D01*
X3207D02*
X3283D01*
X3181D02*
X3186D01*
X3100D02*
X3151D01*
X3059D02*
X3070D01*
X3014D02*
X3044D01*
X2973D02*
X2993D01*
X2927D02*
X2948D01*
X2871D02*
X2907D01*
X2790D02*
X2826D01*
X2719D02*
X2750D01*
X2455D02*
X2678D01*
X5244Y-5033D02*
X5452D01*
X5229D02*
X5239D01*
X5203D02*
X5213D01*
X5173D02*
X5193D01*
X4715D02*
X5168D01*
X4213D02*
X4690D01*
X4157D02*
X4187D01*
X3603D02*
X4136D01*
X3390D02*
X3583D01*
X3303D02*
X3369D01*
X2927D02*
X3283D01*
X2790D02*
X2907D01*
X2719D02*
X2750D01*
X2455D02*
X2678D01*
X5244Y-5028D02*
X5452D01*
X5229D02*
X5239D01*
X5203D02*
X5208D01*
X5173D02*
X5193D01*
X4715D02*
X5168D01*
X4213D02*
X4690D01*
X4157D02*
X4177D01*
X3603D02*
X4136D01*
X3390D02*
X3583D01*
X3303D02*
X3369D01*
X2927D02*
X3283D01*
X2790D02*
X2907D01*
X2714D02*
X2750D01*
X2455D02*
X2678D01*
X5244Y-5023D02*
X5452D01*
X5234D02*
X5239D01*
X5218D02*
X5224D01*
X5203D02*
X5208D01*
X5173D02*
X5193D01*
X4751D02*
X5168D01*
X4208D02*
X4690D01*
X3603D02*
X4136D01*
X3390D02*
X3583D01*
X3344D02*
X3369D01*
X2927D02*
X3283D01*
X2790D02*
X2907D01*
X2714D02*
X2755D01*
X2455D02*
X2678D01*
X5244Y-5018D02*
X5452D01*
X5234D02*
X5239D01*
X5213D02*
X5224D01*
X5173D02*
X5193D01*
X4959D02*
X5168D01*
X4751D02*
X4939D01*
X4426D02*
X4690D01*
X4202D02*
X4406D01*
X3913D02*
X4136D01*
X3603D02*
X3893D01*
X3390D02*
X3593D01*
X3344D02*
X3369D01*
X3014D02*
X3283D01*
X2927D02*
X2993D01*
X2790D02*
X2907D01*
X2714D02*
X2755D01*
X2455D02*
X2678D01*
X5244Y-5012D02*
X5452D01*
X5213D02*
X5229D01*
X5173D02*
X5193D01*
X4959D02*
X5168D01*
X4751D02*
X4939D01*
X4426D02*
X4690D01*
X4187D02*
X4406D01*
X3913D02*
X4136D01*
X3390D02*
X3893D01*
X3344D02*
X3369D01*
X3014D02*
X3283D01*
X2927D02*
X2993D01*
X2790D02*
X2907D01*
X2709D02*
X2755D01*
X2455D02*
X2678D01*
X5244Y-5007D02*
X5452D01*
X5208D02*
X5229D01*
X5173D02*
X5193D01*
X4959D02*
X5168D01*
X4426D02*
X4939D01*
X3913D02*
X4406D01*
X3390D02*
X3893D01*
X3014D02*
X3369D01*
X2927D02*
X2993D01*
X2455D02*
X2907D01*
X5244Y-5002D02*
X5452D01*
X5208D02*
X5234D01*
X5188D02*
X5193D01*
X3390D02*
X5152D01*
X2927D02*
X3369D01*
X2455D02*
X2907D01*
X2455Y-4997D02*
X5452D01*
X2455Y-4992D02*
X5452D01*
X2455Y-4987D02*
X5452D01*
X2455Y-4982D02*
X5452D01*
X2455Y-4977D02*
X5452D01*
X2455Y-4972D02*
X5452D01*
X2455Y-4967D02*
X5452D01*
X2455Y-4962D02*
X5452D01*
X2455Y-4957D02*
X5452D01*
X2455Y-4951D02*
X5452D01*
X2455Y-4946D02*
X5452D01*
X2455Y-4941D02*
X5452D01*
X2455Y-4936D02*
X5452D01*
X2455Y-4931D02*
X5452D01*
X2455Y-4926D02*
X5452D01*
X2455Y-4921D02*
X5452D01*
X2455Y-4916D02*
X5452D01*
X2455Y-4911D02*
X5452D01*
X2455Y-4906D02*
X5452D01*
X2455Y-4901D02*
X5452D01*
X2455Y-4896D02*
X5452D01*
X4131Y-4891D02*
X5452D01*
X2455D02*
X4075D01*
X4157Y-4885D02*
X5452D01*
X3649D02*
X4050D01*
X2455D02*
X3588D01*
X5244Y-4880D02*
X5452D01*
X5224D02*
X5239D01*
X5203D02*
X5213D01*
X5173D02*
X5193D01*
X5036D02*
X5163D01*
X4858D02*
X4944D01*
X4614D02*
X4700D01*
X4380D02*
X4456D01*
X4172D02*
X4223D01*
X3908D02*
X4040D01*
X3694D02*
X3755D01*
X3400D02*
X3542D01*
X3212D02*
X3247D01*
X2866D02*
X3034D01*
X2455D02*
X2683D01*
X5244Y-4875D02*
X5452D01*
X5229D02*
X5239D01*
X5203D02*
X5213D01*
X5173D02*
X5193D01*
X5056D02*
X5163D01*
X4858D02*
X4949D01*
X4614D02*
X4700D01*
X4380D02*
X4456D01*
X4182D02*
X4228D01*
X3913D02*
X4030D01*
X3699D02*
X3755D01*
X3405D02*
X3527D01*
X3212D02*
X3247D01*
X2866D02*
X3034D01*
X2455D02*
X2689D01*
X5244Y-4870D02*
X5452D01*
X5229D02*
X5239D01*
X5203D02*
X5213D01*
X5173D02*
X5193D01*
X5066D02*
X5163D01*
X4858D02*
X4949D01*
X4614D02*
X4705D01*
X4380D02*
X4456D01*
X4192D02*
X4228D01*
X3913D02*
X4020D01*
X3699D02*
X3755D01*
X3405D02*
X3517D01*
X3212D02*
X3247D01*
X2871D02*
X3034D01*
X2455D02*
X2689D01*
X5244Y-4865D02*
X5452D01*
X5229D02*
X5239D01*
X5218D02*
X5224D01*
X5203D02*
X5208D01*
X5173D02*
X5193D01*
X5076D02*
X5163D01*
X4858D02*
X4949D01*
X4614D02*
X4705D01*
X4385D02*
X4462D01*
X4197D02*
X4228D01*
X3913D02*
X4014D01*
X3699D02*
X3755D01*
X3405D02*
X3506D01*
X3212D02*
X3252D01*
X2871D02*
X3034D01*
X2455D02*
X2694D01*
X5244Y-4860D02*
X5452D01*
X5234D02*
X5239D01*
X5213D02*
X5224D01*
X5203D02*
X5208D01*
X5173D02*
X5193D01*
X5081D02*
X5163D01*
X4863D02*
X4949D01*
X4619D02*
X4705D01*
X4385D02*
X4462D01*
X4208D02*
X4228D01*
X3913D02*
X4009D01*
X3699D02*
X3760D01*
X3405D02*
X3501D01*
X3212D02*
X3252D01*
X2871D02*
X3034D01*
X2455D02*
X2694D01*
X5244Y-4855D02*
X5452D01*
X5234D02*
X5239D01*
X5213D02*
X5229D01*
X5173D02*
X5193D01*
X5091D02*
X5163D01*
X4863D02*
X4954D01*
X4619D02*
X4705D01*
X4385D02*
X4462D01*
X4213D02*
X4233D01*
X3918D02*
X4009D01*
X3705D02*
X3760D01*
X3410D02*
X3501D01*
X3212D02*
X3252D01*
X2877D02*
X3034D01*
X2455D02*
X2699D01*
X5244Y-4850D02*
X5452D01*
X5213D02*
X5229D01*
X5173D02*
X5193D01*
X5097D02*
X5163D01*
X4863D02*
X4954D01*
X4619D02*
X4710D01*
X4385D02*
X4462D01*
X4218D02*
X4233D01*
X3918D02*
X4004D01*
X3705D02*
X3760D01*
X3410D02*
X3496D01*
X3212D02*
X3252D01*
X2877D02*
X3034D01*
X2455D02*
X2699D01*
X5244Y-4845D02*
X5452D01*
X5208D02*
X5229D01*
X5173D02*
X5193D01*
X5102D02*
X5163D01*
X4863D02*
X4954D01*
X4619D02*
X4710D01*
X4390D02*
X4467D01*
X4223D02*
X4233D01*
X3918D02*
X4004D01*
X3705D02*
X3760D01*
X3410D02*
X3496D01*
X3212D02*
X3258D01*
X2882D02*
X3034D01*
X2455D02*
X2704D01*
X5244Y-4840D02*
X5452D01*
X5208D02*
X5234D01*
X5188D02*
X5193D01*
X5102D02*
X5152D01*
X4868D02*
X4954D01*
X4624D02*
X4710D01*
X4390D02*
X4467D01*
X4228D02*
X4233D01*
X3918D02*
X4004D01*
X3705D02*
X3766D01*
X3410D02*
X3496D01*
X3212D02*
X3258D01*
X2882D02*
X3034D01*
X2455D02*
X2709D01*
X5107Y-4835D02*
X5452D01*
X4868D02*
X4959D01*
X4624D02*
X4710D01*
X4390D02*
X4467D01*
X3923D02*
X3999D01*
X3710D02*
X3766D01*
X3415D02*
X3496D01*
X3212D02*
X3258D01*
X2887D02*
X3034D01*
X2455D02*
X2709D01*
X5112Y-4830D02*
X5452D01*
X4868D02*
X4959D01*
X4624D02*
X4715D01*
X4390D02*
X4467D01*
X3923D02*
X3999D01*
X3710D02*
X3766D01*
X3415D02*
X3496D01*
X3212D02*
X3258D01*
X2887D02*
X3039D01*
X2455D02*
X2714D01*
X5112Y-4824D02*
X5452D01*
X4868D02*
X4959D01*
X4624D02*
X4715D01*
X4395D02*
X4472D01*
X3923D02*
X3999D01*
X3710D02*
X3766D01*
X3415D02*
X3496D01*
X3212D02*
X3263D01*
X2887D02*
X3039D01*
X2455D02*
X2714D01*
X5117Y-4819D02*
X5452D01*
X4873D02*
X4959D01*
X4629D02*
X4715D01*
X4395D02*
X4472D01*
X3923D02*
X3999D01*
X3710D02*
X3771D01*
X3415D02*
X3496D01*
X3212D02*
X3263D01*
X2892D02*
X3039D01*
X2455D02*
X2719D01*
X5117Y-4814D02*
X5452D01*
X4873D02*
X4964D01*
X4629D02*
X4715D01*
X4395D02*
X4472D01*
X3928D02*
X3999D01*
X3715D02*
X3771D01*
X3420D02*
X3496D01*
X3212D02*
X3263D01*
X2892D02*
X3039D01*
X2455D02*
X2719D01*
X5122Y-4809D02*
X5452D01*
X4873D02*
X4964D01*
X4629D02*
X4721D01*
X4395D02*
X4472D01*
X3928D02*
X3999D01*
X3715D02*
X3771D01*
X3420D02*
X3496D01*
X3212D02*
X3263D01*
X2897D02*
X3039D01*
X2455D02*
X2724D01*
X5122Y-4804D02*
X5452D01*
X4873D02*
X4964D01*
X4629D02*
X4721D01*
X4401D02*
X4477D01*
X3928D02*
X3999D01*
X3715D02*
X3771D01*
X3420D02*
X3496D01*
X3212D02*
X3268D01*
X2897D02*
X3039D01*
X2455D02*
X2724D01*
X5122Y-4799D02*
X5452D01*
X4878D02*
X4964D01*
X4634D02*
X4721D01*
X4401D02*
X4477D01*
X3928D02*
X3999D01*
X3715D02*
X3776D01*
X3420D02*
X3496D01*
X3212D02*
X3268D01*
X2902D02*
X3039D01*
X2455D02*
X2729D01*
X5122Y-4794D02*
X5452D01*
X4878D02*
X4969D01*
X4634D02*
X4721D01*
X4401D02*
X4477D01*
X3933D02*
X3999D01*
X3720D02*
X3776D01*
X3425D02*
X3496D01*
X3212D02*
X3268D01*
X2902D02*
X3039D01*
X2455D02*
X2729D01*
X5127Y-4789D02*
X5452D01*
X4878D02*
X4969D01*
X4634D02*
X4726D01*
X4401D02*
X4477D01*
X3933D02*
X4004D01*
X3720D02*
X3776D01*
X3425D02*
X3496D01*
X3212D02*
X3268D01*
X2907D02*
X3039D01*
X2455D02*
X2734D01*
X5127Y-4784D02*
X5452D01*
X4878D02*
X4969D01*
X4634D02*
X4726D01*
X4406D02*
X4482D01*
X4177D02*
X4228D01*
X3933D02*
X4004D01*
X3669D02*
X3776D01*
X3425D02*
X3501D01*
X3212D02*
X3273D01*
X2455D02*
X2734D01*
X5127Y-4779D02*
X5452D01*
X4883D02*
X4969D01*
X4639D02*
X4726D01*
X4406D02*
X4482D01*
X4172D02*
X4238D01*
X3933D02*
X4004D01*
X3664D02*
X3781D01*
X3425D02*
X3501D01*
X3212D02*
X3273D01*
X2455D02*
X2739D01*
X5127Y-4774D02*
X5452D01*
X4883D02*
X4975D01*
X4639D02*
X4726D01*
X4406D02*
X4482D01*
X4172D02*
X4243D01*
X3938D02*
X4004D01*
X3664D02*
X3781D01*
X3430D02*
X3501D01*
X3212D02*
X3273D01*
X2455D02*
X2744D01*
X5132Y-4769D02*
X5452D01*
X4883D02*
X4975D01*
X4639D02*
X4731D01*
X4406D02*
X4482D01*
X4167D02*
X4248D01*
X3938D02*
X4009D01*
X3659D02*
X3781D01*
X3430D02*
X3501D01*
X3212D02*
X3273D01*
X2455D02*
X2744D01*
X5132Y-4764D02*
X5452D01*
X4883D02*
X4975D01*
X4639D02*
X4731D01*
X4411D02*
X4487D01*
X4167D02*
X4248D01*
X3938D02*
X4009D01*
X3664D02*
X3781D01*
X3430D02*
X3506D01*
X3207D02*
X3278D01*
X2455D02*
X2750D01*
X5132Y-4758D02*
X5452D01*
X4888D02*
X4975D01*
X4644D02*
X4731D01*
X4411D02*
X4487D01*
X4167D02*
X4253D01*
X3938D02*
X4009D01*
X3664D02*
X3786D01*
X3430D02*
X3506D01*
X3207D02*
X3278D01*
X2455D02*
X2750D01*
X5132Y-4753D02*
X5452D01*
X4888D02*
X4980D01*
X4644D02*
X4731D01*
X4411D02*
X4487D01*
X4167D02*
X4253D01*
X3943D02*
X4009D01*
X3664D02*
X3786D01*
X3435D02*
X3506D01*
X3207D02*
X3278D01*
X2455D02*
X2755D01*
X5137Y-4748D02*
X5452D01*
X4888D02*
X4980D01*
X4644D02*
X4736D01*
X4411D02*
X4487D01*
X4167D02*
X4258D01*
X3943D02*
X4014D01*
X3664D02*
X3786D01*
X3435D02*
X3506D01*
X3207D02*
X3278D01*
X2455D02*
X2755D01*
X5137Y-4743D02*
X5452D01*
X4888D02*
X4980D01*
X4644D02*
X4736D01*
X4416D02*
X4492D01*
X4172D02*
X4258D01*
X3943D02*
X4014D01*
X3664D02*
X3786D01*
X3435D02*
X3512D01*
X3207D02*
X3283D01*
X2455D02*
X2760D01*
X5137Y-4738D02*
X5452D01*
X4893D02*
X4980D01*
X4649D02*
X4736D01*
X4416D02*
X4492D01*
X4172D02*
X4258D01*
X3943D02*
X4014D01*
X3669D02*
X3791D01*
X3435D02*
X3512D01*
X3207D02*
X3283D01*
X2455D02*
X2760D01*
X5137Y-4733D02*
X5452D01*
X4893D02*
X4985D01*
X4649D02*
X4736D01*
X4416D02*
X4492D01*
X4172D02*
X4258D01*
X3948D02*
X4014D01*
X3669D02*
X3791D01*
X3440D02*
X3512D01*
X3207D02*
X3283D01*
X2455D02*
X2765D01*
X5142Y-4728D02*
X5452D01*
X4893D02*
X4985D01*
X4649D02*
X4741D01*
X4416D02*
X4492D01*
X4172D02*
X4263D01*
X3948D02*
X4020D01*
X3669D02*
X3791D01*
X3440D02*
X3512D01*
X3207D02*
X3283D01*
X2455D02*
X2765D01*
X5142Y-4723D02*
X5452D01*
X4893D02*
X4985D01*
X4649D02*
X4741D01*
X4421D02*
X4497D01*
X4177D02*
X4263D01*
X3948D02*
X4020D01*
X3669D02*
X3791D01*
X3440D02*
X3517D01*
X3207D02*
X3288D01*
X2455D02*
X2770D01*
X5142Y-4718D02*
X5452D01*
X4898D02*
X4985D01*
X4655D02*
X4741D01*
X4421D02*
X4497D01*
X4177D02*
X4263D01*
X3948D02*
X4020D01*
X3674D02*
X3796D01*
X3440D02*
X3517D01*
X3207D02*
X3288D01*
X2455D02*
X2770D01*
X5142Y-4713D02*
X5452D01*
X4898D02*
X4990D01*
X4655D02*
X4741D01*
X4421D02*
X4497D01*
X4177D02*
X4263D01*
X3953D02*
X4020D01*
X3674D02*
X3796D01*
X3446D02*
X3517D01*
X3207D02*
X3288D01*
X2455D02*
X2775D01*
X5147Y-4708D02*
X5452D01*
X4898D02*
X4990D01*
X4655D02*
X4746D01*
X4421D02*
X4497D01*
X4177D02*
X4268D01*
X3953D02*
X4025D01*
X3674D02*
X3796D01*
X3446D02*
X3517D01*
X3207D02*
X3288D01*
X2455D02*
X2775D01*
X5147Y-4703D02*
X5452D01*
X4898D02*
X4990D01*
X4655D02*
X4746D01*
X4426D02*
X4502D01*
X4182D02*
X4268D01*
X3953D02*
X4025D01*
X3674D02*
X3796D01*
X3446D02*
X3522D01*
X3207D02*
X3293D01*
X2455D02*
X2780D01*
X5147Y-4697D02*
X5452D01*
X4903D02*
X4990D01*
X4660D02*
X4746D01*
X4426D02*
X4502D01*
X4182D02*
X4268D01*
X3953D02*
X4025D01*
X3679D02*
X3801D01*
X3446D02*
X3522D01*
X3207D02*
X3293D01*
X2455D02*
X2785D01*
X5147Y-4692D02*
X5452D01*
X4903D02*
X4995D01*
X4660D02*
X4746D01*
X4426D02*
X4502D01*
X4182D02*
X4268D01*
X3959D02*
X4025D01*
X3679D02*
X3801D01*
X3451D02*
X3522D01*
X3207D02*
X3293D01*
X2455D02*
X2785D01*
X5152Y-4687D02*
X5452D01*
X4903D02*
X4995D01*
X4660D02*
X4751D01*
X4426D02*
X4502D01*
X4182D02*
X4274D01*
X3959D02*
X4030D01*
X3679D02*
X3801D01*
X3451D02*
X3522D01*
X3207D02*
X3293D01*
X2455D02*
X2790D01*
X5152Y-4682D02*
X5452D01*
X4903D02*
X4995D01*
X4660D02*
X4751D01*
X4431D02*
X4507D01*
X4187D02*
X4274D01*
X3959D02*
X4030D01*
X3679D02*
X3801D01*
X3451D02*
X3527D01*
X3207D02*
X3298D01*
X2455D02*
X2790D01*
X5152Y-4677D02*
X5452D01*
X4909D02*
X4995D01*
X4665D02*
X4751D01*
X4431D02*
X4507D01*
X4187D02*
X4274D01*
X3959D02*
X4030D01*
X3684D02*
X3806D01*
X3451D02*
X3527D01*
X3207D02*
X3298D01*
X2953D02*
X3044D01*
X2455D02*
X2795D01*
X5152Y-4672D02*
X5452D01*
X4909D02*
X5000D01*
X4665D02*
X4751D01*
X4431D02*
X4507D01*
X4187D02*
X4274D01*
X3964D02*
X4030D01*
X3684D02*
X3806D01*
X3456D02*
X3527D01*
X3207D02*
X3298D01*
X2958D02*
X3044D01*
X2455D02*
X2795D01*
X5157Y-4667D02*
X5452D01*
X4909D02*
X5000D01*
X4665D02*
X4756D01*
X4431D02*
X4507D01*
X4187D02*
X4279D01*
X3964D02*
X4035D01*
X3684D02*
X3806D01*
X3456D02*
X3527D01*
X3207D02*
X3298D01*
X2958D02*
X3044D01*
X2455D02*
X2800D01*
X5157Y-4662D02*
X5452D01*
X4909D02*
X5000D01*
X4665D02*
X4756D01*
X4436D02*
X4512D01*
X4192D02*
X4279D01*
X3964D02*
X4035D01*
X3684D02*
X3806D01*
X3456D02*
X3532D01*
X3207D02*
X3303D01*
X2963D02*
X3044D01*
X2455D02*
X2800D01*
X5157Y-4657D02*
X5452D01*
X4914D02*
X5000D01*
X4670D02*
X4756D01*
X4436D02*
X4512D01*
X4192D02*
X4279D01*
X3964D02*
X4035D01*
X3689D02*
X3811D01*
X3456D02*
X3532D01*
X3207D02*
X3303D01*
X2963D02*
X3044D01*
X2455D02*
X2805D01*
X5157Y-4652D02*
X5452D01*
X4914D02*
X5005D01*
X4670D02*
X4756D01*
X4436D02*
X4512D01*
X4192D02*
X4279D01*
X3969D02*
X4035D01*
X3689D02*
X3811D01*
X3461D02*
X3532D01*
X3207D02*
X3303D01*
X2968D02*
X3044D01*
X2455D02*
X2805D01*
X5163Y-4647D02*
X5452D01*
X4914D02*
X5005D01*
X4670D02*
X4761D01*
X4436D02*
X4512D01*
X4192D02*
X4284D01*
X3969D02*
X4040D01*
X3689D02*
X3811D01*
X3461D02*
X3532D01*
X3207D02*
X3303D01*
X2968D02*
X3044D01*
X2455D02*
X2810D01*
X5163Y-4642D02*
X5452D01*
X4914D02*
X5005D01*
X4670D02*
X4761D01*
X4441D02*
X4517D01*
X4197D02*
X4284D01*
X3969D02*
X4040D01*
X3689D02*
X3811D01*
X3461D02*
X3537D01*
X3207D02*
X3308D01*
X2968D02*
X3049D01*
X2455D02*
X2810D01*
X5163Y-4637D02*
X5452D01*
X4919D02*
X5005D01*
X4675D02*
X4761D01*
X4441D02*
X4517D01*
X4197D02*
X4284D01*
X3969D02*
X4040D01*
X3694D02*
X3816D01*
X3461D02*
X3537D01*
X3207D02*
X3308D01*
X2973D02*
X3049D01*
X2455D02*
X2816D01*
X5163Y-4631D02*
X5452D01*
X4919D02*
X5010D01*
X4675D02*
X4761D01*
X4441D02*
X4517D01*
X4197D02*
X4284D01*
X3974D02*
X4040D01*
X3694D02*
X3816D01*
X3466D02*
X3537D01*
X3202D02*
X3308D01*
X2973D02*
X3049D01*
X2455D02*
X2821D01*
X5168Y-4626D02*
X5452D01*
X4919D02*
X5010D01*
X4675D02*
X4766D01*
X4441D02*
X4517D01*
X4197D02*
X4289D01*
X3974D02*
X4045D01*
X3694D02*
X3816D01*
X3466D02*
X3537D01*
X3202D02*
X3308D01*
X2978D02*
X3049D01*
X2455D02*
X2821D01*
X5168Y-4621D02*
X5452D01*
X4919D02*
X5010D01*
X4675D02*
X4766D01*
X4446D02*
X4522D01*
X4202D02*
X4289D01*
X3974D02*
X4045D01*
X3694D02*
X3816D01*
X3466D02*
X3542D01*
X3202D02*
X3313D01*
X2978D02*
X3049D01*
X2455D02*
X2826D01*
X5168Y-4616D02*
X5452D01*
X4924D02*
X5010D01*
X4680D02*
X4766D01*
X4446D02*
X4522D01*
X4202D02*
X4289D01*
X3974D02*
X4045D01*
X3699D02*
X3821D01*
X3466D02*
X3542D01*
X3202D02*
X3313D01*
X2983D02*
X3049D01*
X2455D02*
X2826D01*
X5168Y-4611D02*
X5452D01*
X4924D02*
X5015D01*
X4680D02*
X4766D01*
X4446D02*
X4522D01*
X4202D02*
X4289D01*
X3979D02*
X4045D01*
X3699D02*
X3821D01*
X3471D02*
X3542D01*
X3202D02*
X3313D01*
X2983D02*
X3049D01*
X2455D02*
X2831D01*
X5173Y-4606D02*
X5452D01*
X4924D02*
X5015D01*
X4680D02*
X4771D01*
X4446D02*
X4522D01*
X4202D02*
X4294D01*
X3979D02*
X4050D01*
X3699D02*
X3821D01*
X3471D02*
X3547D01*
X3202D02*
X3313D01*
X2988D02*
X3049D01*
X2455D02*
X2831D01*
X5173Y-4601D02*
X5452D01*
X4929D02*
X5015D01*
X4680D02*
X4771D01*
X4451D02*
X4528D01*
X4208D02*
X4294D01*
X3979D02*
X4050D01*
X3699D02*
X3821D01*
X3471D02*
X3547D01*
X3202D02*
X3319D01*
X2988D02*
X3049D01*
X2455D02*
X2836D01*
X5173Y-4596D02*
X5452D01*
X4929D02*
X5015D01*
X4685D02*
X4771D01*
X4451D02*
X4528D01*
X4208D02*
X4294D01*
X3979D02*
X4050D01*
X3705D02*
X3826D01*
X3471D02*
X3547D01*
X3202D02*
X3319D01*
X2993D02*
X3049D01*
X2455D02*
X2836D01*
X5173Y-4591D02*
X5452D01*
X4929D02*
X5015D01*
X4685D02*
X4771D01*
X4451D02*
X4528D01*
X4208D02*
X4294D01*
X3984D02*
X4050D01*
X3705D02*
X3826D01*
X3476D02*
X3547D01*
X3202D02*
X3319D01*
X2993D02*
X3049D01*
X2455D02*
X2841D01*
X5178Y-4586D02*
X5452D01*
X4934D02*
X5020D01*
X4690D02*
X4771D01*
X4451D02*
X4528D01*
X4208D02*
X4299D01*
X3984D02*
X4055D01*
X3705D02*
X3826D01*
X3476D02*
X3552D01*
X3202D02*
X3319D01*
X2998D02*
X3049D01*
X2455D02*
X2841D01*
X5178Y-4581D02*
X5452D01*
X4934D02*
X5015D01*
X4690D02*
X4771D01*
X4456D02*
X4533D01*
X4213D02*
X4299D01*
X3984D02*
X4055D01*
X3705D02*
X3826D01*
X3476D02*
X3552D01*
X3202D02*
X3324D01*
X2998D02*
X3049D01*
X2455D02*
X2846D01*
X5178Y-4576D02*
X5452D01*
X4939D02*
X5015D01*
X4695D02*
X4771D01*
X4456D02*
X4533D01*
X4213D02*
X4299D01*
X3984D02*
X4055D01*
X3710D02*
X3832D01*
X3476D02*
X3552D01*
X3202D02*
X3324D01*
X2998D02*
X3049D01*
X2455D02*
X2846D01*
X5178Y-4570D02*
X5452D01*
X4944D02*
X5015D01*
X4700D02*
X4771D01*
X4456D02*
X4533D01*
X4213D02*
X4299D01*
X3989D02*
X4055D01*
X3710D02*
X3832D01*
X3481D02*
X3552D01*
X3202D02*
X3324D01*
X3004D02*
X3049D01*
X2455D02*
X2851D01*
X5183Y-4565D02*
X5452D01*
X4949D02*
X5010D01*
X4705D02*
X4766D01*
X4456D02*
X4533D01*
X4213D02*
X4304D01*
X3989D02*
X4060D01*
X3710D02*
X3832D01*
X3481D02*
X3557D01*
X3202D02*
X3324D01*
X3004D02*
X3049D01*
X2455D02*
X2851D01*
X5183Y-4560D02*
X5452D01*
X4959D02*
X5005D01*
X4715D02*
X4761D01*
X4462D02*
X4538D01*
X4218D02*
X4304D01*
X3989D02*
X4060D01*
X3710D02*
X3832D01*
X3481D02*
X3557D01*
X3202D02*
X3329D01*
X3009D02*
X3049D01*
X2455D02*
X2856D01*
X5183Y-4555D02*
X5452D01*
X4462D02*
X4538D01*
X4218D02*
X4304D01*
X3989D02*
X4060D01*
X3776D02*
X3837D01*
X3481D02*
X3557D01*
X3202D02*
X3329D01*
X3009D02*
X3049D01*
X2455D02*
X2861D01*
X5183Y-4550D02*
X5452D01*
X4462D02*
X4538D01*
X4218D02*
X4304D01*
X3994D02*
X4060D01*
X3781D02*
X3837D01*
X3486D02*
X3557D01*
X3202D02*
X3329D01*
X3014D02*
X3054D01*
X2455D02*
X2861D01*
X5183Y-4545D02*
X5452D01*
X4462D02*
X4538D01*
X4218D02*
X4309D01*
X3994D02*
X4065D01*
X3781D02*
X3837D01*
X3486D02*
X3562D01*
X3202D02*
X3329D01*
X3014D02*
X3054D01*
X2455D02*
X2866D01*
X5188Y-4540D02*
X5452D01*
X4467D02*
X4543D01*
X4223D02*
X4309D01*
X3994D02*
X4065D01*
X3781D02*
X3837D01*
X3486D02*
X3562D01*
X3202D02*
X3334D01*
X3019D02*
X3054D01*
X2455D02*
X2866D01*
X5188Y-4535D02*
X5452D01*
X4467D02*
X4543D01*
X4223D02*
X4309D01*
X3994D02*
X4065D01*
X3781D02*
X3842D01*
X3486D02*
X3562D01*
X3202D02*
X3334D01*
X3019D02*
X3054D01*
X2455D02*
X2871D01*
X5188Y-4530D02*
X5452D01*
X4467D02*
X4543D01*
X4223D02*
X4309D01*
X3999D02*
X4065D01*
X3786D02*
X3842D01*
X3491D02*
X3562D01*
X3202D02*
X3334D01*
X3024D02*
X3054D01*
X2455D02*
X2871D01*
X5188Y-4525D02*
X5452D01*
X4467D02*
X4543D01*
X4223D02*
X4314D01*
X3999D02*
X4070D01*
X3786D02*
X3842D01*
X3491D02*
X3567D01*
X3202D02*
X3334D01*
X3024D02*
X3054D01*
X2455D02*
X2877D01*
X5188Y-4520D02*
X5452D01*
X4472D02*
X4548D01*
X4228D02*
X4314D01*
X3999D02*
X4070D01*
X3786D02*
X3842D01*
X3491D02*
X3567D01*
X3202D02*
X3339D01*
X3024D02*
X3054D01*
X2455D02*
X2877D01*
X5188Y-4515D02*
X5452D01*
X4472D02*
X4548D01*
X4228D02*
X4314D01*
X3999D02*
X4070D01*
X3786D02*
X3847D01*
X3491D02*
X3567D01*
X3202D02*
X3339D01*
X3029D02*
X3054D01*
X2455D02*
X2882D01*
X5183Y-4510D02*
X5452D01*
X4944D02*
X4949D01*
X4705D02*
X4710D01*
X4472D02*
X4548D01*
X4228D02*
X4314D01*
X4004D02*
X4070D01*
X3791D02*
X3847D01*
X3496D02*
X3567D01*
X3202D02*
X3339D01*
X3029D02*
X3054D01*
X2455D02*
X2882D01*
X5183Y-4504D02*
X5452D01*
X4939D02*
X4954D01*
X4705D02*
X4715D01*
X4472D02*
X4548D01*
X4228D02*
X4319D01*
X4004D02*
X4075D01*
X3791D02*
X3847D01*
X3496D02*
X3572D01*
X3202D02*
X3339D01*
X3034D02*
X3054D01*
X2455D02*
X2887D01*
X5183Y-4499D02*
X5452D01*
X4939D02*
X4959D01*
X4710D02*
X4721D01*
X4477D02*
X4553D01*
X4233D02*
X4319D01*
X4004D02*
X4075D01*
X3791D02*
X3847D01*
X3496D02*
X3572D01*
X3202D02*
X3344D01*
X3034D02*
X3054D01*
X2455D02*
X2887D01*
X5183Y-4494D02*
X5452D01*
X4939D02*
X4964D01*
X4710D02*
X4726D01*
X4477D02*
X4553D01*
X4233D02*
X4319D01*
X4004D02*
X4075D01*
X3791D02*
X3852D01*
X3496D02*
X3572D01*
X3197D02*
X3344D01*
X3039D02*
X3054D01*
X2455D02*
X2892D01*
X5178Y-4489D02*
X5452D01*
X4934D02*
X4969D01*
X4710D02*
X4731D01*
X4477D02*
X4553D01*
X4233D02*
X4319D01*
X4009D02*
X4075D01*
X3796D02*
X3852D01*
X3501D02*
X3572D01*
X3197D02*
X3344D01*
X3039D02*
X3054D01*
X2455D02*
X2897D01*
X5178Y-4484D02*
X5452D01*
X4929D02*
X4975D01*
X4710D02*
X4736D01*
X4477D02*
X4553D01*
X4233D02*
X4324D01*
X4009D02*
X4081D01*
X3796D02*
X3852D01*
X3501D02*
X3578D01*
X3197D02*
X3344D01*
X3044D02*
X3054D01*
X2455D02*
X2897D01*
X5173Y-4479D02*
X5452D01*
X4929D02*
X4985D01*
X4715D02*
X4746D01*
X4482D02*
X4558D01*
X4238D02*
X4324D01*
X4009D02*
X4081D01*
X3796D02*
X3852D01*
X3501D02*
X3578D01*
X3197D02*
X3349D01*
X3044D02*
X3054D01*
X2455D02*
X2902D01*
X5168Y-4474D02*
X5452D01*
X4924D02*
X4995D01*
X4715D02*
X4751D01*
X4482D02*
X4558D01*
X4238D02*
X4324D01*
X4009D02*
X4081D01*
X3796D02*
X3857D01*
X3506D02*
X3578D01*
X3197D02*
X3349D01*
X3049D02*
X3054D01*
X2455D02*
X2902D01*
X5157Y-4469D02*
X5452D01*
X4914D02*
X5005D01*
X4715D02*
X4761D01*
X4482D02*
X4558D01*
X4238D02*
X4324D01*
X4014D02*
X4081D01*
X3801D02*
X3857D01*
X3506D02*
X3578D01*
X3197D02*
X3349D01*
X3049D02*
X3054D01*
X2455D02*
X2907D01*
X5147Y-4464D02*
X5452D01*
X4909D02*
X5015D01*
X3801D02*
X4771D01*
X3506D02*
X3583D01*
X3197D02*
X3349D01*
X2455D02*
X2907D01*
X5137Y-4459D02*
X5452D01*
X4893D02*
X5030D01*
X3735D02*
X4787D01*
X3506D02*
X3583D01*
X3197D02*
X3354D01*
X2455D02*
X2912D01*
X5112Y-4454D02*
X5452D01*
X4873D02*
X5061D01*
X3740D02*
X4817D01*
X3512D02*
X3583D01*
X3197D02*
X3354D01*
X2455D02*
X2912D01*
X3740Y-4449D02*
X5452D01*
X3512D02*
X3583D01*
X3197D02*
X3354D01*
X2455D02*
X2917D01*
X3740Y-4443D02*
X5452D01*
X3512D02*
X3588D01*
X3197D02*
X3354D01*
X2455D02*
X2917D01*
X3740Y-4438D02*
X5452D01*
X3512D02*
X3588D01*
X3197D02*
X3359D01*
X2455D02*
X2922D01*
X3745Y-4433D02*
X5452D01*
X3517D02*
X3588D01*
X3197D02*
X3359D01*
X2455D02*
X2922D01*
X3745Y-4428D02*
X5452D01*
X3517D02*
X3588D01*
X3197D02*
X3359D01*
X2455D02*
X2927D01*
X3745Y-4423D02*
X5452D01*
X3517D02*
X3593D01*
X3197D02*
X3359D01*
X2455D02*
X2932D01*
X3745Y-4418D02*
X5452D01*
X3517D02*
X3593D01*
X3197D02*
X3359D01*
X2455D02*
X2932D01*
X3750Y-4413D02*
X5452D01*
X3522D02*
X3593D01*
X3197D02*
X3364D01*
X2455D02*
X2938D01*
X3750Y-4408D02*
X5452D01*
X3522D02*
X3593D01*
X3197D02*
X3364D01*
X2455D02*
X2943D01*
X3750Y-4403D02*
X5452D01*
X3522D02*
X3598D01*
X3197D02*
X3364D01*
X2455D02*
X2948D01*
X3055Y-3898D02*
X4752D01*
X2822D02*
X2898D01*
X3197Y-4398D02*
X3364D01*
X2455D02*
X2953D01*
X3055Y-3893D02*
X4752D01*
X2827D02*
X2898D01*
X3197Y-4393D02*
X3369D01*
X2455D02*
X2958D01*
X3055Y-3888D02*
X4752D01*
X2827D02*
X2898D01*
X3197Y-4388D02*
X3369D01*
X2455D02*
X2963D01*
X3055Y-3883D02*
X4752D01*
X2827D02*
X2903D01*
X3197Y-4383D02*
X3369D01*
X2455D02*
X2968D01*
X3060Y-3877D02*
X4752D01*
X2827D02*
X2903D01*
X3197Y-4377D02*
X3369D01*
X2455D02*
X2973D01*
X3060Y-3872D02*
X4752D01*
X2832D02*
X2903D01*
X3197Y-4372D02*
X3374D01*
X2455D02*
X2978D01*
X3060Y-3867D02*
X4752D01*
X2832D02*
X2903D01*
X3197Y-4367D02*
X3374D01*
X2455D02*
X2988D01*
X3060Y-3862D02*
X4752D01*
X2832D02*
X2908D01*
X3192Y-4362D02*
X3374D01*
X2455D02*
X2993D01*
X3066Y-3857D02*
X4752D01*
X2832D02*
X2908D01*
X3192Y-4357D02*
X3374D01*
X2455D02*
X3004D01*
X3066Y-3852D02*
X4752D01*
X2837D02*
X2908D01*
X3192Y-4352D02*
X3379D01*
X2455D02*
X3014D01*
X3066Y-3847D02*
X4752D01*
X2837D02*
X2908D01*
X3192Y-4347D02*
X3379D01*
X2455D02*
X3024D01*
X3066Y-3842D02*
X4752D01*
X2837D02*
X2913D01*
X3192Y-4342D02*
X3379D01*
X2455D02*
X3039D01*
X3071Y-3837D02*
X4752D01*
X2837D02*
X2913D01*
X3192Y-4337D02*
X3379D01*
X2455D02*
X3054D01*
X2842Y-3832D02*
X4752D01*
X3192Y-4332D02*
X3385D01*
X2455D02*
X3085D01*
X2455Y-4327D02*
X5452D01*
X2460Y-4322D02*
X5452D01*
X2460Y-4316D02*
X5452D01*
X2460Y-4311D02*
X5452D01*
X2460Y-4306D02*
X5452D01*
X2465Y-4301D02*
X5452D01*
X2465Y-4296D02*
X5452D01*
X2465Y-4291D02*
X5452D01*
X2470Y-4286D02*
X5452D01*
X2470Y-4281D02*
X5452D01*
X2475Y-4276D02*
X5452D01*
X2475Y-4271D02*
X5452D01*
X2480Y-4266D02*
X5452D01*
X2480Y-4261D02*
X5452D01*
X2480Y-4256D02*
X5452D01*
X2485Y-4250D02*
X5452D01*
X2490Y-4245D02*
X5452D01*
X2490Y-4240D02*
X5452D01*
X2496Y-4235D02*
X5452D01*
X2496Y-4230D02*
X5452D01*
X2501Y-4225D02*
X5452D01*
X2506Y-4220D02*
X5452D01*
X2511Y-4215D02*
X5452D01*
X2511Y-4210D02*
X5452D01*
X2516Y-4205D02*
X5452D01*
X2521Y-4200D02*
X5452D01*
X2526Y-4195D02*
X5452D01*
X2531Y-4189D02*
X5452D01*
X2531Y-4184D02*
X5452D01*
X2536Y-4179D02*
X5452D01*
X2541Y-4174D02*
X5452D01*
X2546Y-4169D02*
X5452D01*
X2551Y-4164D02*
X5452D01*
X2557Y-4159D02*
X5452D01*
X2567Y-4154D02*
X5452D01*
X2572Y-4149D02*
X5452D01*
X2577Y-4144D02*
X5452D01*
X2582Y-4139D02*
X5452D01*
X2592Y-4134D02*
X5452D01*
X2597Y-4129D02*
X5452D01*
X2607Y-4123D02*
X5452D01*
X2617Y-4118D02*
X5452D01*
X2628Y-4113D02*
X5452D01*
X2638Y-4108D02*
X5452D01*
X2648Y-4103D02*
X5452D01*
X2663Y-4098D02*
X5452D01*
X2678Y-4093D02*
X5452D01*
X2694Y-4088D02*
X5452D01*
X2724Y-4083D02*
X5452D01*
D41*
X-11553Y-7410D02*
X17657D01*
Y11894D01*
X-11553D02*
X17657D01*
X-11045Y-6902D02*
Y11386D01*
Y-6902D02*
X17149D01*
Y11386D01*
X-11045D02*
X17149D01*
X-4251D02*
Y11894D01*
X3052Y11386D02*
Y11894D01*
X10354Y11386D02*
Y11894D01*
X17149Y7068D02*
X17657D01*
X17149Y2242D02*
X17657D01*
X17149Y-2584D02*
X17657D01*
X-11553Y-7410D02*
Y11894D01*
Y7068D02*
X-11045D01*
X-11553Y2242D02*
X-11045D01*
X-11553Y-2584D02*
X-11045D01*
X-4251Y-7410D02*
Y-6902D01*
X3052Y-7410D02*
Y-6902D01*
X2163D02*
X5719D01*
X2163D02*
Y-3854D01*
X5719D01*
Y-4616D02*
X9529D01*
X5719Y-6902D02*
X17149D01*
X5719Y-6140D02*
X17149D01*
X5719Y-5378D02*
X17149D01*
X5719Y-3854D02*
X9529D01*
Y-5378D02*
Y-3854D01*
X17149D01*
Y-6902D02*
Y-3854D01*
X5719Y-6902D02*
Y-3854D01*
X14863Y-6902D02*
Y-5378D01*
X9529Y-6902D02*
Y-5378D01*
X10354Y-7410D02*
Y-6902D01*
X5846Y-5518D02*
Y-5632D01*
Y-5518D02*
X5884D01*
X5900Y-5523D01*
X5911Y-5534D01*
X5917Y-5545D01*
X5922Y-5561D01*
Y-5589D01*
X5917Y-5605D01*
X5911Y-5616D01*
X5900Y-5627D01*
X5884Y-5632D01*
X5846D01*
X6035D02*
X5991Y-5518D01*
X5948Y-5632D01*
X5964Y-5594D02*
X6018D01*
X6099Y-5518D02*
Y-5632D01*
X6061Y-5518D02*
X6137D01*
X6222D02*
X6151D01*
Y-5632D01*
X6222D01*
X6151Y-5572D02*
X6195D01*
X6246Y-5556D02*
X6241Y-5561D01*
X6246Y-5567D01*
X6252Y-5561D01*
X6246Y-5556D01*
Y-5621D02*
X6241Y-5627D01*
X6246Y-5632D01*
X6252Y-5627D01*
X6246Y-5621D01*
X14990Y-5518D02*
Y-5632D01*
Y-5518D02*
X15039D01*
X15055Y-5523D01*
X15061Y-5529D01*
X15066Y-5540D01*
Y-5551D01*
X15061Y-5561D01*
X15055Y-5567D01*
X15039Y-5572D01*
X14990D01*
X15028D02*
X15066Y-5632D01*
X15162Y-5518D02*
X15092D01*
Y-5632D01*
X15162D01*
X15092Y-5572D02*
X15135D01*
X15181Y-5518D02*
X15225Y-5632D01*
X15268Y-5518D02*
X15225Y-5632D01*
X15289Y-5556D02*
X15283Y-5561D01*
X15289Y-5567D01*
X15294Y-5561D01*
X15289Y-5556D01*
Y-5621D02*
X15283Y-5627D01*
X15289Y-5632D01*
X15294Y-5627D01*
X15289Y-5621D01*
X9656Y-6280D02*
Y-6394D01*
Y-6280D02*
X9694D01*
X9710Y-6285D01*
X9721Y-6296D01*
X9727Y-6307D01*
X9732Y-6323D01*
Y-6351D01*
X9727Y-6367D01*
X9721Y-6378D01*
X9710Y-6389D01*
X9694Y-6394D01*
X9656D01*
X9758Y-6280D02*
X9785Y-6394D01*
X9812Y-6280D02*
X9785Y-6394D01*
X9812Y-6280D02*
X9839Y-6394D01*
X9866Y-6280D02*
X9839Y-6394D01*
X9971Y-6307D02*
X9965Y-6296D01*
X9955Y-6285D01*
X9944Y-6280D01*
X9922D01*
X9911Y-6285D01*
X9900Y-6296D01*
X9895Y-6307D01*
X9889Y-6323D01*
Y-6351D01*
X9895Y-6367D01*
X9900Y-6378D01*
X9911Y-6389D01*
X9922Y-6394D01*
X9944D01*
X9955Y-6389D01*
X9965Y-6378D01*
X9971Y-6367D01*
Y-6351D01*
X9944D02*
X9971D01*
X10087Y-6280D02*
Y-6394D01*
Y-6280D02*
X10163Y-6394D01*
Y-6280D02*
Y-6394D01*
X10227Y-6280D02*
X10216Y-6285D01*
X10205Y-6296D01*
X10200Y-6307D01*
X10195Y-6323D01*
Y-6351D01*
X10200Y-6367D01*
X10205Y-6378D01*
X10216Y-6389D01*
X10227Y-6394D01*
X10249D01*
X10260Y-6389D01*
X10271Y-6378D01*
X10276Y-6367D01*
X10282Y-6351D01*
Y-6323D01*
X10276Y-6307D01*
X10271Y-6296D01*
X10260Y-6285D01*
X10249Y-6280D01*
X10227D01*
X10314Y-6318D02*
X10308Y-6323D01*
X10314Y-6329D01*
X10319Y-6323D01*
X10314Y-6318D01*
Y-6383D02*
X10308Y-6389D01*
X10314Y-6394D01*
X10319Y-6389D01*
X10314Y-6383D01*
X5917Y-3994D02*
X5846D01*
Y-4108D01*
X5917D01*
X5846Y-4048D02*
X5889D01*
X5936Y-3994D02*
Y-4108D01*
Y-3994D02*
X6012Y-4108D01*
Y-3994D02*
Y-4108D01*
X6125Y-4021D02*
X6120Y-4010D01*
X6109Y-3999D01*
X6098Y-3994D01*
X6076D01*
X6065Y-3999D01*
X6054Y-4010D01*
X6049Y-4021D01*
X6043Y-4037D01*
Y-4065D01*
X6049Y-4081D01*
X6054Y-4092D01*
X6065Y-4103D01*
X6076Y-4108D01*
X6098D01*
X6109Y-4103D01*
X6120Y-4092D01*
X6125Y-4081D01*
Y-4065D01*
X6098D02*
X6125D01*
X6151Y-3994D02*
Y-4108D01*
X6175Y-3994D02*
Y-4108D01*
Y-3994D02*
X6251Y-4108D01*
Y-3994D02*
Y-4108D01*
X6354Y-3994D02*
X6283D01*
Y-4108D01*
X6354D01*
X6283Y-4048D02*
X6326D01*
X6443Y-3994D02*
X6373D01*
Y-4108D01*
X6443D01*
X6373Y-4048D02*
X6416D01*
X6462Y-3994D02*
Y-4108D01*
Y-3994D02*
X6511D01*
X6528Y-3999D01*
X6533Y-4005D01*
X6539Y-4016D01*
Y-4027D01*
X6533Y-4037D01*
X6528Y-4043D01*
X6511Y-4048D01*
X6462D01*
X6500D02*
X6539Y-4108D01*
X6570Y-4032D02*
X6564Y-4037D01*
X6570Y-4043D01*
X6575Y-4037D01*
X6570Y-4032D01*
Y-4097D02*
X6564Y-4103D01*
X6570Y-4108D01*
X6575Y-4103D01*
X6570Y-4097D01*
X9656Y-5578D02*
X9705D01*
X9721Y-5572D01*
X9727Y-5567D01*
X9732Y-5556D01*
Y-5540D01*
X9727Y-5529D01*
X9721Y-5523D01*
X9705Y-5518D01*
X9656D01*
Y-5632D01*
X9845D02*
X9801Y-5518D01*
X9758Y-5632D01*
X9774Y-5594D02*
X9828D01*
X9871Y-5518D02*
Y-5632D01*
Y-5518D02*
X9920D01*
X9937Y-5523D01*
X9942Y-5529D01*
X9947Y-5540D01*
Y-5551D01*
X9942Y-5561D01*
X9937Y-5567D01*
X9920Y-5572D01*
X9871D01*
X9909D02*
X9947Y-5632D01*
X10011Y-5518D02*
Y-5632D01*
X9973Y-5518D02*
X10049D01*
X10153D02*
Y-5632D01*
Y-5518D02*
X10229Y-5632D01*
Y-5518D02*
Y-5632D01*
X10293Y-5518D02*
X10282Y-5523D01*
X10271Y-5534D01*
X10266Y-5545D01*
X10260Y-5561D01*
Y-5589D01*
X10266Y-5605D01*
X10271Y-5616D01*
X10282Y-5627D01*
X10293Y-5632D01*
X10315D01*
X10326Y-5627D01*
X10337Y-5616D01*
X10342Y-5605D01*
X10347Y-5589D01*
Y-5561D01*
X10342Y-5545D01*
X10337Y-5534D01*
X10326Y-5523D01*
X10315Y-5518D01*
X10293D01*
X10380Y-5621D02*
X10374Y-5627D01*
X10380Y-5632D01*
X10385Y-5627D01*
X10380Y-5621D01*
X10415Y-5556D02*
X10410Y-5561D01*
X10415Y-5567D01*
X10421Y-5561D01*
X10415Y-5556D01*
Y-5621D02*
X10410Y-5627D01*
X10415Y-5632D01*
X10421Y-5627D01*
X10415Y-5621D01*
X9694Y-3994D02*
Y-4108D01*
X9656Y-3994D02*
X9732D01*
X9746D02*
Y-4108D01*
X9808Y-3994D02*
Y-4108D01*
X9770Y-3994D02*
X9846D01*
X9859D02*
Y-4108D01*
X9925D01*
X10008Y-3994D02*
X9937D01*
Y-4108D01*
X10008D01*
X9937Y-4048D02*
X9981D01*
X10032Y-4032D02*
X10027Y-4037D01*
X10032Y-4043D01*
X10038Y-4037D01*
X10032Y-4032D01*
Y-4097D02*
X10027Y-4103D01*
X10032Y-4108D01*
X10038Y-4103D01*
X10032Y-4097D01*
X5846Y-4803D02*
X5895D01*
X5911Y-4798D01*
X5917Y-4792D01*
X5922Y-4781D01*
Y-4765D01*
X5917Y-4754D01*
X5911Y-4749D01*
X5895Y-4743D01*
X5846D01*
Y-4858D01*
X6029Y-4770D02*
X6024Y-4760D01*
X6013Y-4749D01*
X6002Y-4743D01*
X5980D01*
X5969Y-4749D01*
X5958Y-4760D01*
X5953Y-4770D01*
X5948Y-4787D01*
Y-4814D01*
X5953Y-4830D01*
X5958Y-4841D01*
X5969Y-4852D01*
X5980Y-4858D01*
X6002D01*
X6013Y-4852D01*
X6024Y-4841D01*
X6029Y-4830D01*
X6061Y-4743D02*
Y-4858D01*
Y-4743D02*
X6110D01*
X6127Y-4749D01*
X6132Y-4754D01*
X6137Y-4765D01*
Y-4776D01*
X6132Y-4787D01*
X6127Y-4792D01*
X6110Y-4798D01*
X6061D02*
X6110D01*
X6127Y-4803D01*
X6132Y-4809D01*
X6137Y-4819D01*
Y-4836D01*
X6132Y-4847D01*
X6127Y-4852D01*
X6110Y-4858D01*
X6061D01*
X6253Y-4743D02*
Y-4858D01*
Y-4743D02*
X6291D01*
X6307Y-4749D01*
X6318Y-4760D01*
X6324Y-4770D01*
X6329Y-4787D01*
Y-4814D01*
X6324Y-4830D01*
X6318Y-4841D01*
X6307Y-4852D01*
X6291Y-4858D01*
X6253D01*
X6425Y-4743D02*
X6355D01*
Y-4858D01*
X6425D01*
X6355Y-4798D02*
X6398D01*
X6521Y-4760D02*
X6510Y-4749D01*
X6493Y-4743D01*
X6472D01*
X6455Y-4749D01*
X6444Y-4760D01*
Y-4770D01*
X6450Y-4781D01*
X6455Y-4787D01*
X6466Y-4792D01*
X6499Y-4803D01*
X6510Y-4809D01*
X6515Y-4814D01*
X6521Y-4825D01*
Y-4841D01*
X6510Y-4852D01*
X6493Y-4858D01*
X6472D01*
X6455Y-4852D01*
X6444Y-4841D01*
X6546Y-4743D02*
Y-4858D01*
X6652Y-4770D02*
X6646Y-4760D01*
X6635Y-4749D01*
X6625Y-4743D01*
X6603D01*
X6592Y-4749D01*
X6581Y-4760D01*
X6576Y-4770D01*
X6570Y-4787D01*
Y-4814D01*
X6576Y-4830D01*
X6581Y-4841D01*
X6592Y-4852D01*
X6603Y-4858D01*
X6625D01*
X6635Y-4852D01*
X6646Y-4841D01*
X6652Y-4830D01*
Y-4814D01*
X6625D02*
X6652D01*
X6678Y-4743D02*
Y-4858D01*
Y-4743D02*
X6754Y-4858D01*
Y-4743D02*
Y-4858D01*
X6856Y-4743D02*
X6786D01*
Y-4858D01*
X6856D01*
X6786Y-4798D02*
X6829D01*
X6875Y-4743D02*
Y-4858D01*
Y-4743D02*
X6924D01*
X6941Y-4749D01*
X6946Y-4754D01*
X6952Y-4765D01*
Y-4776D01*
X6946Y-4787D01*
X6941Y-4792D01*
X6924Y-4798D01*
X6875D01*
X6913D02*
X6952Y-4858D01*
X6983Y-4781D02*
X6977Y-4787D01*
X6983Y-4792D01*
X6988Y-4787D01*
X6983Y-4781D01*
Y-4847D02*
X6977Y-4852D01*
X6983Y-4858D01*
X6988Y-4852D01*
X6983Y-4847D01*
X5846Y-6280D02*
Y-6394D01*
Y-6280D02*
X5917D01*
X5846Y-6334D02*
X5889D01*
X5930Y-6280D02*
Y-6394D01*
X5954Y-6280D02*
Y-6394D01*
X6019D01*
X6102Y-6280D02*
X6031D01*
Y-6394D01*
X6102D01*
X6031Y-6334D02*
X6075D01*
X6211Y-6280D02*
Y-6394D01*
Y-6280D02*
X6287Y-6394D01*
Y-6280D02*
Y-6394D01*
X6406D02*
X6362Y-6280D01*
X6319Y-6394D01*
X6335Y-6356D02*
X6389D01*
X6432Y-6280D02*
Y-6394D01*
Y-6280D02*
X6476Y-6394D01*
X6519Y-6280D02*
X6476Y-6394D01*
X6519Y-6280D02*
Y-6394D01*
X6623Y-6280D02*
X6552D01*
Y-6394D01*
X6623D01*
X6552Y-6334D02*
X6596D01*
X6647Y-6318D02*
X6642Y-6323D01*
X6647Y-6329D01*
X6653Y-6323D01*
X6647Y-6318D01*
Y-6383D02*
X6642Y-6389D01*
X6647Y-6394D01*
X6653Y-6389D01*
X6647Y-6383D01*
X15066Y-6296D02*
X15055Y-6285D01*
X15039Y-6280D01*
X15017D01*
X15001Y-6285D01*
X14990Y-6296D01*
Y-6307D01*
X14995Y-6318D01*
X15001Y-6323D01*
X15012Y-6329D01*
X15044Y-6340D01*
X15055Y-6345D01*
X15061Y-6351D01*
X15066Y-6362D01*
Y-6378D01*
X15055Y-6389D01*
X15039Y-6394D01*
X15017D01*
X15001Y-6389D01*
X14990Y-6378D01*
X15173Y-6307D02*
X15168Y-6296D01*
X15157Y-6285D01*
X15146Y-6280D01*
X15124D01*
X15113Y-6285D01*
X15102Y-6296D01*
X15097Y-6307D01*
X15092Y-6323D01*
Y-6351D01*
X15097Y-6367D01*
X15102Y-6378D01*
X15113Y-6389D01*
X15124Y-6394D01*
X15146D01*
X15157Y-6389D01*
X15168Y-6378D01*
X15173Y-6367D01*
X15292Y-6394D02*
X15249Y-6280D01*
X15205Y-6394D01*
X15222Y-6356D02*
X15276D01*
X15319Y-6280D02*
Y-6394D01*
X15384D01*
X15468Y-6280D02*
X15397D01*
Y-6394D01*
X15468D01*
X15397Y-6334D02*
X15440D01*
X15492Y-6318D02*
X15487Y-6323D01*
X15492Y-6329D01*
X15498Y-6323D01*
X15492Y-6318D01*
Y-6383D02*
X15487Y-6389D01*
X15492Y-6394D01*
X15498Y-6389D01*
X15492Y-6383D01*
D42*
X17475Y9250D02*
X17407Y9427D01*
X17339Y9250D01*
X17365Y9309D02*
X17449D01*
X17339Y4622D02*
Y4444D01*
Y4622D02*
X17415D01*
X17441Y4613D01*
X17449Y4605D01*
X17458Y4588D01*
Y4571D01*
X17449Y4554D01*
X17441Y4546D01*
X17415Y4537D01*
X17339D02*
X17415D01*
X17441Y4529D01*
X17449Y4520D01*
X17458Y4503D01*
Y4478D01*
X17449Y4461D01*
X17441Y4452D01*
X17415Y4444D01*
X17339D01*
X17466Y-272D02*
X17458Y-255D01*
X17441Y-238D01*
X17424Y-230D01*
X17390D01*
X17373Y-238D01*
X17356Y-255D01*
X17348Y-272D01*
X17339Y-297D01*
Y-340D01*
X17348Y-365D01*
X17356Y-382D01*
X17373Y-399D01*
X17390Y-407D01*
X17424D01*
X17441Y-399D01*
X17458Y-382D01*
X17466Y-365D01*
X17339Y-5030D02*
Y-5208D01*
Y-5030D02*
X17399D01*
X17424Y-5039D01*
X17441Y-5056D01*
X17449Y-5073D01*
X17458Y-5098D01*
Y-5140D01*
X17449Y-5166D01*
X17441Y-5183D01*
X17424Y-5200D01*
X17399Y-5208D01*
X17339D01*
X-11227Y9250D02*
X-11295Y9427D01*
X-11363Y9250D01*
X-11337Y9309D02*
X-11253D01*
X-11363Y4622D02*
Y4444D01*
Y4622D02*
X-11287D01*
X-11261Y4613D01*
X-11253Y4605D01*
X-11244Y4588D01*
Y4571D01*
X-11253Y4554D01*
X-11261Y4546D01*
X-11287Y4537D01*
X-11363D02*
X-11287D01*
X-11261Y4529D01*
X-11253Y4520D01*
X-11244Y4503D01*
Y4478D01*
X-11253Y4461D01*
X-11261Y4452D01*
X-11287Y4444D01*
X-11363D01*
X-11236Y-272D02*
X-11244Y-255D01*
X-11261Y-238D01*
X-11278Y-230D01*
X-11312D01*
X-11329Y-238D01*
X-11346Y-255D01*
X-11354Y-272D01*
X-11363Y-297D01*
Y-340D01*
X-11354Y-365D01*
X-11346Y-382D01*
X-11329Y-399D01*
X-11312Y-407D01*
X-11278D01*
X-11261Y-399D01*
X-11244Y-382D01*
X-11236Y-365D01*
X-11363Y-5030D02*
Y-5208D01*
Y-5030D02*
X-11303D01*
X-11278Y-5039D01*
X-11261Y-5056D01*
X-11253Y-5073D01*
X-11244Y-5098D01*
Y-5140D01*
X-11253Y-5166D01*
X-11261Y-5183D01*
X-11278Y-5200D01*
X-11303Y-5208D01*
X-11363D01*
X-7929Y11695D02*
X-7912Y11703D01*
X-7886Y11729D01*
Y11551D01*
X-656Y11686D02*
Y11695D01*
X-647Y11712D01*
X-639Y11720D01*
X-622Y11729D01*
X-588D01*
X-571Y11720D01*
X-563Y11712D01*
X-554Y11695D01*
Y11678D01*
X-563Y11661D01*
X-580Y11636D01*
X-664Y11551D01*
X-546D01*
X6668Y11729D02*
X6761D01*
X6710Y11661D01*
X6736D01*
X6753Y11652D01*
X6761Y11644D01*
X6769Y11619D01*
Y11602D01*
X6761Y11576D01*
X6744Y11559D01*
X6719Y11551D01*
X6693D01*
X6668Y11559D01*
X6659Y11568D01*
X6651Y11585D01*
X14025Y11729D02*
X13941Y11610D01*
X14068D01*
X14025Y11729D02*
Y11551D01*
X-7929Y-7101D02*
X-7912Y-7093D01*
X-7886Y-7067D01*
Y-7245D01*
X-546D02*
X-664D01*
X-546Y-7127D01*
Y-7097D01*
X-575Y-7067D01*
X-635D01*
X-664Y-7097D01*
X6651D02*
X6681Y-7067D01*
X6740D01*
X6769Y-7097D01*
Y-7127D01*
X6740Y-7156D01*
X6710D01*
X6740D01*
X6769Y-7186D01*
Y-7215D01*
X6740Y-7245D01*
X6681D01*
X6651Y-7215D01*
X14030Y-7245D02*
Y-7067D01*
X13941Y-7156D01*
X14059D01*
X2544Y-6470D02*
Y-6648D01*
Y-6470D02*
X2662Y-6648D01*
Y-6470D02*
Y-6648D01*
X2830Y-6496D02*
X2813Y-6479D01*
X2788Y-6470D01*
X2754D01*
X2728Y-6479D01*
X2711Y-6496D01*
Y-6513D01*
X2720Y-6530D01*
X2728Y-6538D01*
X2745Y-6547D01*
X2796Y-6564D01*
X2813Y-6572D01*
X2821Y-6580D01*
X2830Y-6597D01*
Y-6623D01*
X2813Y-6640D01*
X2788Y-6648D01*
X2754D01*
X2728Y-6640D01*
X2711Y-6623D01*
X2870Y-6470D02*
X2912Y-6648D01*
X2954Y-6470D02*
X2912Y-6648D01*
X2954Y-6470D02*
X2997Y-6648D01*
X3039Y-6470D02*
X2997Y-6648D01*
X3223Y-6513D02*
Y-6504D01*
X3231Y-6487D01*
X3240Y-6479D01*
X3257Y-6470D01*
X3290D01*
X3307Y-6479D01*
X3316Y-6487D01*
X3324Y-6504D01*
Y-6521D01*
X3316Y-6538D01*
X3299Y-6564D01*
X3214Y-6648D01*
X3333D01*
X3423Y-6470D02*
X3398Y-6479D01*
X3381Y-6504D01*
X3373Y-6547D01*
Y-6572D01*
X3381Y-6614D01*
X3398Y-6640D01*
X3423Y-6648D01*
X3440D01*
X3466Y-6640D01*
X3483Y-6614D01*
X3491Y-6572D01*
Y-6547D01*
X3483Y-6504D01*
X3466Y-6479D01*
X3440Y-6470D01*
X3423D01*
X3573D02*
X3548Y-6479D01*
X3539Y-6496D01*
Y-6513D01*
X3548Y-6530D01*
X3565Y-6538D01*
X3599Y-6547D01*
X3624Y-6555D01*
X3641Y-6572D01*
X3649Y-6589D01*
Y-6614D01*
X3641Y-6631D01*
X3632Y-6640D01*
X3607Y-6648D01*
X3573D01*
X3548Y-6640D01*
X3539Y-6631D01*
X3531Y-6614D01*
Y-6589D01*
X3539Y-6572D01*
X3556Y-6555D01*
X3582Y-6547D01*
X3615Y-6538D01*
X3632Y-6530D01*
X3641Y-6513D01*
Y-6496D01*
X3632Y-6479D01*
X3607Y-6470D01*
X3573D01*
X3791Y-6496D02*
X3782Y-6479D01*
X3757Y-6470D01*
X3740D01*
X3714Y-6479D01*
X3698Y-6504D01*
X3689Y-6547D01*
Y-6589D01*
X3698Y-6623D01*
X3714Y-6640D01*
X3740Y-6648D01*
X3748D01*
X3774Y-6640D01*
X3791Y-6623D01*
X3799Y-6597D01*
Y-6589D01*
X3791Y-6564D01*
X3774Y-6547D01*
X3748Y-6538D01*
X3740D01*
X3714Y-6547D01*
X3698Y-6564D01*
X3689Y-6589D01*
X2544Y-6216D02*
Y-6394D01*
Y-6216D02*
X2654D01*
X2544Y-6301D02*
X2612D01*
X2674Y-6276D02*
Y-6394D01*
Y-6326D02*
X2683Y-6301D01*
X2700Y-6284D01*
X2716Y-6276D01*
X2742D01*
X2758Y-6326D02*
X2860D01*
Y-6310D01*
X2851Y-6293D01*
X2843Y-6284D01*
X2826Y-6276D01*
X2800D01*
X2783Y-6284D01*
X2766Y-6301D01*
X2758Y-6326D01*
Y-6343D01*
X2766Y-6369D01*
X2783Y-6386D01*
X2800Y-6394D01*
X2826D01*
X2843Y-6386D01*
X2860Y-6369D01*
X2898Y-6276D02*
Y-6394D01*
Y-6310D02*
X2923Y-6284D01*
X2940Y-6276D01*
X2965D01*
X2982Y-6284D01*
X2991Y-6310D01*
Y-6394D01*
X3139Y-6301D02*
X3122Y-6284D01*
X3105Y-6276D01*
X3080D01*
X3063Y-6284D01*
X3046Y-6301D01*
X3037Y-6326D01*
Y-6343D01*
X3046Y-6369D01*
X3063Y-6386D01*
X3080Y-6394D01*
X3105D01*
X3122Y-6386D01*
X3139Y-6369D01*
X3177Y-6216D02*
Y-6394D01*
Y-6310D02*
X3202Y-6284D01*
X3219Y-6276D01*
X3245D01*
X3262Y-6284D01*
X3270Y-6310D01*
Y-6394D01*
X3410Y-6301D02*
X3401Y-6284D01*
X3376Y-6276D01*
X3351D01*
X3325Y-6284D01*
X3317Y-6301D01*
X3325Y-6318D01*
X3342Y-6326D01*
X3384Y-6335D01*
X3401Y-6343D01*
X3410Y-6360D01*
Y-6369D01*
X3401Y-6386D01*
X3376Y-6394D01*
X3351D01*
X3325Y-6386D01*
X3317Y-6369D01*
X3587Y-6216D02*
Y-6394D01*
Y-6216D02*
X3697D01*
X3587Y-6301D02*
X3654D01*
X3759Y-6276D02*
X3742Y-6284D01*
X3725Y-6301D01*
X3717Y-6326D01*
Y-6343D01*
X3725Y-6369D01*
X3742Y-6386D01*
X3759Y-6394D01*
X3785D01*
X3802Y-6386D01*
X3819Y-6369D01*
X3827Y-6343D01*
Y-6326D01*
X3819Y-6301D01*
X3802Y-6284D01*
X3785Y-6276D01*
X3759D01*
X3866D02*
Y-6394D01*
Y-6326D02*
X3874Y-6301D01*
X3891Y-6284D01*
X3908Y-6276D01*
X3934D01*
X3950Y-6326D02*
X4051D01*
Y-6310D01*
X4043Y-6293D01*
X4034Y-6284D01*
X4018Y-6276D01*
X3992D01*
X3975Y-6284D01*
X3958Y-6301D01*
X3950Y-6326D01*
Y-6343D01*
X3958Y-6369D01*
X3975Y-6386D01*
X3992Y-6394D01*
X4018D01*
X4034Y-6386D01*
X4051Y-6369D01*
X4183Y-6301D02*
X4174Y-6284D01*
X4149Y-6276D01*
X4123D01*
X4098Y-6284D01*
X4089Y-6301D01*
X4098Y-6318D01*
X4115Y-6326D01*
X4157Y-6335D01*
X4174Y-6343D01*
X4183Y-6360D01*
Y-6369D01*
X4174Y-6386D01*
X4149Y-6394D01*
X4123D01*
X4098Y-6386D01*
X4089Y-6369D01*
X4245Y-6216D02*
Y-6360D01*
X4254Y-6386D01*
X4271Y-6394D01*
X4288D01*
X4220Y-6276D02*
X4279D01*
X2544Y-5996D02*
X2561Y-5988D01*
X2586Y-5962D01*
Y-6140D01*
X2683Y-6005D02*
Y-5996D01*
X2691Y-5979D01*
X2700Y-5971D01*
X2716Y-5962D01*
X2750D01*
X2767Y-5971D01*
X2776Y-5979D01*
X2784Y-5996D01*
Y-6013D01*
X2776Y-6030D01*
X2759Y-6056D01*
X2674Y-6140D01*
X2793D01*
X2934Y-6022D02*
Y-6140D01*
Y-6047D02*
X2917Y-6030D01*
X2900Y-6022D01*
X2875D01*
X2858Y-6030D01*
X2841Y-6047D01*
X2832Y-6072D01*
Y-6089D01*
X2841Y-6115D01*
X2858Y-6132D01*
X2875Y-6140D01*
X2900D01*
X2917Y-6132D01*
X2934Y-6115D01*
X3121Y-5962D02*
Y-6140D01*
Y-5962D02*
X3197D01*
X3223Y-5971D01*
X3231Y-5979D01*
X3240Y-5996D01*
Y-6013D01*
X3231Y-6030D01*
X3223Y-6039D01*
X3197Y-6047D01*
X3121D01*
X3180D02*
X3240Y-6140D01*
X3322Y-6022D02*
X3305Y-6030D01*
X3288Y-6047D01*
X3279Y-6072D01*
Y-6089D01*
X3288Y-6115D01*
X3305Y-6132D01*
X3322Y-6140D01*
X3347D01*
X3364Y-6132D01*
X3381Y-6115D01*
X3389Y-6089D01*
Y-6072D01*
X3381Y-6047D01*
X3364Y-6030D01*
X3347Y-6022D01*
X3322D01*
X3530Y-5962D02*
Y-6140D01*
Y-6047D02*
X3513Y-6030D01*
X3496Y-6022D01*
X3471D01*
X3454Y-6030D01*
X3437Y-6047D01*
X3428Y-6072D01*
Y-6089D01*
X3437Y-6115D01*
X3454Y-6132D01*
X3471Y-6140D01*
X3496D01*
X3513Y-6132D01*
X3530Y-6115D01*
X3577Y-5962D02*
Y-6140D01*
Y-6047D02*
X3594Y-6030D01*
X3611Y-6022D01*
X3637D01*
X3654Y-6030D01*
X3670Y-6047D01*
X3679Y-6072D01*
Y-6089D01*
X3670Y-6115D01*
X3654Y-6132D01*
X3637Y-6140D01*
X3611D01*
X3594Y-6132D01*
X3577Y-6115D01*
X3759Y-6022D02*
X3742Y-6030D01*
X3725Y-6047D01*
X3717Y-6072D01*
Y-6089D01*
X3725Y-6115D01*
X3742Y-6132D01*
X3759Y-6140D01*
X3785D01*
X3802Y-6132D01*
X3819Y-6115D01*
X3827Y-6089D01*
Y-6072D01*
X3819Y-6047D01*
X3802Y-6030D01*
X3785Y-6022D01*
X3759D01*
X3866D02*
Y-6140D01*
Y-6072D02*
X3874Y-6047D01*
X3891Y-6030D01*
X3908Y-6022D01*
X3934D01*
X3992D02*
X3975Y-6030D01*
X3958Y-6047D01*
X3950Y-6072D01*
Y-6089D01*
X3958Y-6115D01*
X3975Y-6132D01*
X3992Y-6140D01*
X4018D01*
X4034Y-6132D01*
X4051Y-6115D01*
X4060Y-6089D01*
Y-6072D01*
X4051Y-6047D01*
X4034Y-6030D01*
X4018Y-6022D01*
X3992D01*
X4099D02*
Y-6106D01*
X4107Y-6132D01*
X4124Y-6140D01*
X4150D01*
X4167Y-6132D01*
X4192Y-6106D01*
Y-6022D02*
Y-6140D01*
X4340Y-6022D02*
Y-6157D01*
X4332Y-6183D01*
X4323Y-6191D01*
X4306Y-6199D01*
X4281D01*
X4264Y-6191D01*
X4340Y-6047D02*
X4323Y-6030D01*
X4306Y-6022D01*
X4281D01*
X4264Y-6030D01*
X4247Y-6047D01*
X4238Y-6072D01*
Y-6089D01*
X4247Y-6115D01*
X4264Y-6132D01*
X4281Y-6140D01*
X4306D01*
X4323Y-6132D01*
X4340Y-6115D01*
X4387Y-5962D02*
Y-6140D01*
Y-6056D02*
X4413Y-6030D01*
X4430Y-6022D01*
X4455D01*
X4472Y-6030D01*
X4481Y-6056D01*
Y-6140D01*
X4667Y-5962D02*
Y-6140D01*
Y-5962D02*
X4743D01*
X4768Y-5971D01*
X4777Y-5979D01*
X4785Y-5996D01*
Y-6013D01*
X4777Y-6030D01*
X4768Y-6039D01*
X4743Y-6047D01*
X4667D01*
X4726D02*
X4785Y-6140D01*
X4927Y-5962D02*
Y-6140D01*
Y-6047D02*
X4910Y-6030D01*
X4893Y-6022D01*
X4867D01*
X4850Y-6030D01*
X4834Y-6047D01*
X4825Y-6072D01*
Y-6089D01*
X4834Y-6115D01*
X4850Y-6132D01*
X4867Y-6140D01*
X4893D01*
X4910Y-6132D01*
X4927Y-6115D01*
X2679Y-5886D02*
X2612Y-5708D01*
X2544Y-5886D01*
X2569Y-5827D02*
X2654D01*
X2721Y-5708D02*
Y-5886D01*
X2783Y-5708D02*
Y-5852D01*
X2792Y-5878D01*
X2809Y-5886D01*
X2826D01*
X2758Y-5768D02*
X2817D01*
X2868Y-5708D02*
X2876Y-5717D01*
X2885Y-5708D01*
X2876Y-5700D01*
X2868Y-5708D01*
X2876Y-5768D02*
Y-5886D01*
X2916Y-5768D02*
Y-5852D01*
X2925Y-5878D01*
X2942Y-5886D01*
X2967D01*
X2984Y-5878D01*
X3009Y-5852D01*
Y-5768D02*
Y-5886D01*
X3056Y-5768D02*
Y-5886D01*
Y-5802D02*
X3081Y-5776D01*
X3098Y-5768D01*
X3124D01*
X3141Y-5776D01*
X3149Y-5802D01*
Y-5886D01*
Y-5802D02*
X3174Y-5776D01*
X3191Y-5768D01*
X3217D01*
X3234Y-5776D01*
X3242Y-5802D01*
Y-5886D01*
X3438Y-5708D02*
Y-5886D01*
X3539D01*
X3576Y-5708D02*
X3584Y-5717D01*
X3593Y-5708D01*
X3584Y-5700D01*
X3576Y-5708D01*
X3584Y-5768D02*
Y-5886D01*
X3624Y-5768D02*
Y-5886D01*
Y-5802D02*
X3649Y-5776D01*
X3666Y-5768D01*
X3692D01*
X3709Y-5776D01*
X3717Y-5802D01*
Y-5886D01*
Y-5802D02*
X3742Y-5776D01*
X3759Y-5768D01*
X3785D01*
X3802Y-5776D01*
X3810Y-5802D01*
Y-5886D01*
X3883Y-5708D02*
X3891Y-5717D01*
X3900Y-5708D01*
X3891Y-5700D01*
X3883Y-5708D01*
X3891Y-5768D02*
Y-5886D01*
X3957Y-5708D02*
Y-5852D01*
X3965Y-5878D01*
X3982Y-5886D01*
X3999D01*
X3931Y-5768D02*
X3990D01*
X4024Y-5818D02*
X4126D01*
Y-5802D01*
X4117Y-5785D01*
X4109Y-5776D01*
X4092Y-5768D01*
X4067D01*
X4050Y-5776D01*
X4033Y-5793D01*
X4024Y-5818D01*
Y-5835D01*
X4033Y-5861D01*
X4050Y-5878D01*
X4067Y-5886D01*
X4092D01*
X4109Y-5878D01*
X4126Y-5861D01*
X4266Y-5708D02*
Y-5886D01*
Y-5793D02*
X4249Y-5776D01*
X4232Y-5768D01*
X4206D01*
X4189Y-5776D01*
X4172Y-5793D01*
X4164Y-5818D01*
Y-5835D01*
X4172Y-5861D01*
X4189Y-5878D01*
X4206Y-5886D01*
X4232D01*
X4249Y-5878D01*
X4266Y-5861D01*
X5981Y-5802D02*
Y-5793D01*
X5990Y-5776D01*
X5998Y-5768D01*
X6015Y-5759D01*
X6049D01*
X6066Y-5768D01*
X6074Y-5776D01*
X6083Y-5793D01*
Y-5810D01*
X6074Y-5827D01*
X6057Y-5852D01*
X5973Y-5937D01*
X6091D01*
X6148Y-5759D02*
X6241D01*
X6190Y-5827D01*
X6216D01*
X6233Y-5835D01*
X6241Y-5844D01*
X6250Y-5869D01*
Y-5886D01*
X6241Y-5912D01*
X6224Y-5929D01*
X6199Y-5937D01*
X6173D01*
X6148Y-5929D01*
X6140Y-5920D01*
X6131Y-5903D01*
X6298Y-5920D02*
X6289Y-5929D01*
X6298Y-5937D01*
X6306Y-5929D01*
X6298Y-5920D01*
X6396Y-5759D02*
X6371Y-5768D01*
X6354Y-5793D01*
X6345Y-5835D01*
Y-5861D01*
X6354Y-5903D01*
X6371Y-5929D01*
X6396Y-5937D01*
X6413D01*
X6438Y-5929D01*
X6455Y-5903D01*
X6464Y-5861D01*
Y-5835D01*
X6455Y-5793D01*
X6438Y-5768D01*
X6413Y-5759D01*
X6396D01*
X6605Y-5785D02*
X6597Y-5768D01*
X6571Y-5759D01*
X6554D01*
X6529Y-5768D01*
X6512Y-5793D01*
X6504Y-5835D01*
Y-5878D01*
X6512Y-5912D01*
X6529Y-5929D01*
X6554Y-5937D01*
X6563D01*
X6588Y-5929D01*
X6605Y-5912D01*
X6614Y-5886D01*
Y-5878D01*
X6605Y-5852D01*
X6588Y-5835D01*
X6563Y-5827D01*
X6554D01*
X6529Y-5835D01*
X6512Y-5852D01*
X6504Y-5878D01*
X6661Y-5920D02*
X6653Y-5929D01*
X6661Y-5937D01*
X6669Y-5929D01*
X6661Y-5920D01*
X6717Y-5802D02*
Y-5793D01*
X6725Y-5776D01*
X6734Y-5768D01*
X6751Y-5759D01*
X6785D01*
X6802Y-5768D01*
X6810Y-5776D01*
X6818Y-5793D01*
Y-5810D01*
X6810Y-5827D01*
X6793Y-5852D01*
X6708Y-5937D01*
X6827D01*
X6917Y-5759D02*
X6892Y-5768D01*
X6875Y-5793D01*
X6867Y-5835D01*
Y-5861D01*
X6875Y-5903D01*
X6892Y-5929D01*
X6917Y-5937D01*
X6934D01*
X6960Y-5929D01*
X6977Y-5903D01*
X6985Y-5861D01*
Y-5835D01*
X6977Y-5793D01*
X6960Y-5768D01*
X6934Y-5759D01*
X6917D01*
X7025Y-5793D02*
X7042Y-5785D01*
X7067Y-5759D01*
Y-5937D01*
X7274Y-5759D02*
X7189Y-5937D01*
X7155Y-5759D02*
X7274D01*
X6024Y-6521D02*
X6007Y-6530D01*
X5990Y-6547D01*
X5981Y-6564D01*
X5973Y-6589D01*
Y-6631D01*
X5981Y-6657D01*
X5990Y-6674D01*
X6007Y-6691D01*
X6024Y-6699D01*
X6057D01*
X6074Y-6691D01*
X6091Y-6674D01*
X6100Y-6657D01*
X6108Y-6631D01*
Y-6589D01*
X6100Y-6564D01*
X6091Y-6547D01*
X6074Y-6530D01*
X6057Y-6521D01*
X6024D01*
X6049Y-6665D02*
X6100Y-6716D01*
X6150Y-6580D02*
Y-6665D01*
X6158Y-6691D01*
X6175Y-6699D01*
X6201D01*
X6217Y-6691D01*
X6243Y-6665D01*
Y-6580D02*
Y-6699D01*
X6391Y-6580D02*
Y-6699D01*
Y-6606D02*
X6374Y-6589D01*
X6357Y-6580D01*
X6332D01*
X6315Y-6589D01*
X6298Y-6606D01*
X6289Y-6631D01*
Y-6648D01*
X6298Y-6674D01*
X6315Y-6691D01*
X6332Y-6699D01*
X6357D01*
X6374Y-6691D01*
X6391Y-6674D01*
X6540Y-6521D02*
Y-6699D01*
Y-6606D02*
X6523Y-6589D01*
X6506Y-6580D01*
X6481D01*
X6464Y-6589D01*
X6447Y-6606D01*
X6438Y-6631D01*
Y-6648D01*
X6447Y-6674D01*
X6464Y-6691D01*
X6481Y-6699D01*
X6506D01*
X6523Y-6691D01*
X6540Y-6674D01*
X6689Y-6606D02*
X6672Y-6589D01*
X6655Y-6580D01*
X6630D01*
X6613Y-6589D01*
X6596Y-6606D01*
X6587Y-6631D01*
Y-6648D01*
X6596Y-6674D01*
X6613Y-6691D01*
X6630Y-6699D01*
X6655D01*
X6672Y-6691D01*
X6689Y-6674D01*
X6769Y-6580D02*
X6752Y-6589D01*
X6735Y-6606D01*
X6727Y-6631D01*
Y-6648D01*
X6735Y-6674D01*
X6752Y-6691D01*
X6769Y-6699D01*
X6795D01*
X6812Y-6691D01*
X6829Y-6674D01*
X6837Y-6648D01*
Y-6631D01*
X6829Y-6606D01*
X6812Y-6589D01*
X6795Y-6580D01*
X6769D01*
X6876D02*
Y-6758D01*
Y-6606D02*
X6893Y-6589D01*
X6910Y-6580D01*
X6935D01*
X6952Y-6589D01*
X6969Y-6606D01*
X6978Y-6631D01*
Y-6648D01*
X6969Y-6674D01*
X6952Y-6691D01*
X6935Y-6699D01*
X6910D01*
X6893Y-6691D01*
X6876Y-6674D01*
X7041Y-6521D02*
Y-6665D01*
X7050Y-6691D01*
X7066Y-6699D01*
X7083D01*
X7016Y-6580D02*
X7075D01*
X7109Y-6631D02*
X7210D01*
Y-6614D01*
X7202Y-6597D01*
X7193Y-6589D01*
X7177Y-6580D01*
X7151D01*
X7134Y-6589D01*
X7117Y-6606D01*
X7109Y-6631D01*
Y-6648D01*
X7117Y-6674D01*
X7134Y-6691D01*
X7151Y-6699D01*
X7177D01*
X7193Y-6691D01*
X7210Y-6674D01*
X7248Y-6580D02*
Y-6699D01*
Y-6631D02*
X7257Y-6606D01*
X7274Y-6589D01*
X7291Y-6580D01*
X7316D01*
X7332Y-6758D02*
X7468D01*
X7592Y-6606D02*
X7575Y-6589D01*
X7558Y-6580D01*
X7533D01*
X7516Y-6589D01*
X7499Y-6606D01*
X7491Y-6631D01*
Y-6648D01*
X7499Y-6674D01*
X7516Y-6691D01*
X7533Y-6699D01*
X7558D01*
X7575Y-6691D01*
X7592Y-6674D01*
X7673Y-6580D02*
X7656Y-6589D01*
X7639Y-6606D01*
X7630Y-6631D01*
Y-6648D01*
X7639Y-6674D01*
X7656Y-6691D01*
X7673Y-6699D01*
X7698D01*
X7715Y-6691D01*
X7732Y-6674D01*
X7740Y-6648D01*
Y-6631D01*
X7732Y-6606D01*
X7715Y-6589D01*
X7698Y-6580D01*
X7673D01*
X7779D02*
Y-6699D01*
Y-6614D02*
X7805Y-6589D01*
X7822Y-6580D01*
X7847D01*
X7864Y-6589D01*
X7872Y-6614D01*
Y-6699D01*
X7944Y-6521D02*
Y-6665D01*
X7953Y-6691D01*
X7970Y-6699D01*
X7987D01*
X7919Y-6580D02*
X7978D01*
X8012D02*
Y-6699D01*
Y-6631D02*
X8020Y-6606D01*
X8037Y-6589D01*
X8054Y-6580D01*
X8080D01*
X8138D02*
X8121Y-6589D01*
X8104Y-6606D01*
X8096Y-6631D01*
Y-6648D01*
X8104Y-6674D01*
X8121Y-6691D01*
X8138Y-6699D01*
X8164D01*
X8180Y-6691D01*
X8197Y-6674D01*
X8206Y-6648D01*
Y-6631D01*
X8197Y-6606D01*
X8180Y-6589D01*
X8164Y-6580D01*
X8138D01*
X8245Y-6521D02*
Y-6699D01*
X8282Y-6521D02*
Y-6699D01*
X8319Y-6631D02*
X8421D01*
Y-6614D01*
X8412Y-6597D01*
X8404Y-6589D01*
X8387Y-6580D01*
X8362D01*
X8345Y-6589D01*
X8328Y-6606D01*
X8319Y-6631D01*
Y-6648D01*
X8328Y-6674D01*
X8345Y-6691D01*
X8362Y-6699D01*
X8387D01*
X8404Y-6691D01*
X8421Y-6674D01*
X8459Y-6580D02*
Y-6699D01*
Y-6631D02*
X8467Y-6606D01*
X8484Y-6589D01*
X8501Y-6580D01*
X8527D01*
X8551Y-6682D02*
X8543Y-6691D01*
X8551Y-6699D01*
X8560Y-6691D01*
X8551Y-6682D01*
X8599Y-6614D02*
X8675D01*
X8700Y-6606D01*
X8709Y-6597D01*
X8717Y-6580D01*
Y-6555D01*
X8709Y-6538D01*
X8700Y-6530D01*
X8675Y-6521D01*
X8599D01*
Y-6699D01*
X8858Y-6606D02*
X8842Y-6589D01*
X8825Y-6580D01*
X8799D01*
X8782Y-6589D01*
X8765Y-6606D01*
X8757Y-6631D01*
Y-6648D01*
X8765Y-6674D01*
X8782Y-6691D01*
X8799Y-6699D01*
X8825D01*
X8842Y-6691D01*
X8858Y-6674D01*
X8897Y-6521D02*
Y-6699D01*
Y-6606D02*
X8913Y-6589D01*
X8930Y-6580D01*
X8956D01*
X8973Y-6589D01*
X8990Y-6606D01*
X8998Y-6631D01*
Y-6648D01*
X8990Y-6674D01*
X8973Y-6691D01*
X8956Y-6699D01*
X8930D01*
X8913Y-6691D01*
X8897Y-6674D01*
X9036Y-6521D02*
Y-6699D01*
Y-6521D02*
X9095D01*
X9121Y-6530D01*
X9138Y-6547D01*
X9146Y-6564D01*
X9155Y-6589D01*
Y-6631D01*
X9146Y-6657D01*
X9138Y-6674D01*
X9121Y-6691D01*
X9095Y-6699D01*
X9036D01*
X9237Y-6580D02*
X9220Y-6589D01*
X9203Y-6606D01*
X9195Y-6631D01*
Y-6648D01*
X9203Y-6674D01*
X9220Y-6691D01*
X9237Y-6699D01*
X9262D01*
X9279Y-6691D01*
X9296Y-6674D01*
X9305Y-6648D01*
Y-6631D01*
X9296Y-6606D01*
X9279Y-6589D01*
X9262Y-6580D01*
X9237D01*
X9445Y-6606D02*
X9428Y-6589D01*
X9411Y-6580D01*
X9386D01*
X9369Y-6589D01*
X9352Y-6606D01*
X9344Y-6631D01*
Y-6648D01*
X9352Y-6674D01*
X9369Y-6691D01*
X9386Y-6699D01*
X9411D01*
X9428Y-6691D01*
X9445Y-6674D01*
M02*
